<svg xmlns="http://www.w3.org/2000/svg" viewBox="0 0 100 100"><circle cx="87" cy="16" r="5.5" fill="#E0A458"></circle><rect x="25" y="62" width="4" height="18" rx="2" fill="#2E7D52"></rect><rect x="47.75" y="62" width="4.5" height="18" rx="2.25" fill="#2E7D52"></rect><rect x="69.75" y="62" width="5" height="18" rx="2.5" fill="#2E7D52"></rect><path d="M27 47 L16 64 L38 64 Z" fill="#2E7D52"></path><path d="M27 39 L19 53 L35 53 Z" fill="#2E7D52"></path><path d="M50 45 L35 65 L65 65 Z" fill="#2E7D52"></path><path d="M50 36 L39 52 L61 52 Z" fill="#2E7D52"></path><path d="M50 28 L42 42 L58 42 Z" fill="#2E7D52"></path><path d="M72 41 L55 65 L89 65 Z" fill="#2E7D52"></path><path d="M72 31 L60 50 L84 50 Z" fill="#2E7D52"></path><path d="M72 22 L63 38 L81 38 Z" fill="#2E7D52"></path></svg>