<svg xmlns="http://www.w3.org/2000/svg" viewBox="0 0 100 120"><path d="M16 110 Q50 95 84 110 Q84 116 50 116 Q16 116 16 110 Z" fill="#C2A878"></path><path d="M21 109 Q50 99 79 109 Q79 112 50 112.5 Q21 112 21 109 Z" fill="#D8C29B"></path><circle cx="35" cy="108" r="1.4" fill="#C2A878"></circle><circle cx="63" cy="109" r="1.2" fill="#C2A878"></circle><path d="M28 107 q1.5 -4.5 3 0" stroke="#43A86B" stroke-width="1.4" fill="none" stroke-linecap="round"></path><path d="M69 107 q1.5 -4 3 0" stroke="#43A86B" stroke-width="1.4" fill="none" stroke-linecap="round"></path><path d="M46.4 110 C 46.4 102 47.55 59.6 47.55 52.6 L 52.45 52.6 C 52.45 59.6 53.6 102 53.6 110 Z" fill="#8A6A46"></path><path d="M48.75 55.6 C 48.2 100 48.2 100 48.5 109" stroke="#A6855E" stroke-width="1.5" fill="none" stroke-linecap="round"></path><circle cx="50" cy="42.4" r="17.5" fill="#3F8146"></circle><circle cx="50" cy="42.4" r="16.2" fill="#4F9A55"></circle><circle cx="41" cy="44.2" r="9.9" fill="#4F9A55"></circle><circle cx="59" cy="44.2" r="9.9" fill="#4F9A55"></circle><circle cx="50" cy="37.9" r="12.6" fill="#6FB36A"></circle><circle cx="44.6" cy="40.6" r="8.1" fill="#93C98C"></circle><circle cx="43.7" cy="36.1" r="3.6" fill="#C4E6BD"></circle><circle cx="58" cy="68" r="1.5" fill="#E0A458"></circle><circle cx="41" cy="66" r="1.5" fill="#E0A458"></circle><path d="M35.6 47.8 q -4.03 13.5 -2.45 23.4" stroke="#6FB36A" stroke-width="2.7" fill="none" stroke-linecap="round"></path><path d="M42.8 47.8 q -2.02 13.5 -1.22 23.4" stroke="#93C98C" stroke-width="2.7" fill="none" stroke-linecap="round"></path><path d="M50 47.8 q 0 13.5 0 23.4" stroke="#6FB36A" stroke-width="2.7" fill="none" stroke-linecap="round"></path><path d="M57.2 47.8 q 2.02 13.5 1.22 23.4" stroke="#93C98C" stroke-width="2.7" fill="none" stroke-linecap="round"></path><path d="M64.4 47.8 q 4.03 13.5 2.45 23.4" stroke="#6FB36A" stroke-width="2.7" fill="none" stroke-linecap="round"></path></svg>