<svg xmlns="http://www.w3.org/2000/svg" viewBox="0 0 100 120"><path d="M16 110 Q50 95 84 110 Q84 116 50 116 Q16 116 16 110 Z" fill="#C2A878"></path><path d="M21 109 Q50 99 79 109 Q79 112 50 112.5 Q21 112 21 109 Z" fill="#D8C29B"></path><circle cx="35" cy="108" r="1.4" fill="#C2A878"></circle><circle cx="63" cy="109" r="1.2" fill="#C2A878"></circle><path d="M48 110 C 48 102 48.64 99 48.64 92 L 51.36 92 C 51.36 99 52 102 52 110 Z" fill="#8A6A46"></path><path d="M49.252 95 C 49 100 49 100 49.16 109" stroke="#A6855E" stroke-width="1.5" fill="none" stroke-linecap="round"></path><path d="M50 94 C 40 92 33 84 32 74 C 43 74 50 82 50 94 Z" fill="#F3B6CB"></path><path d="M50 90 C 60 88 67 80 68 70 C 57 70 50 78 50 90 Z" fill="#E58AAB"></path><path d="M44 84 C 41 81 39 78 38.6 75" stroke="#FBD3E0" stroke-width="1.4" fill="none" stroke-linecap="round"></path></svg>