<svg xmlns="http://www.w3.org/2000/svg" viewBox="0 0 100 120"><path d="M16 110 Q50 95 84 110 Q84 116 50 116 Q16 116 16 110 Z" fill="#C2A878"></path><path d="M21 109 Q50 99 79 109 Q79 112 50 112.5 Q21 112 21 109 Z" fill="#D8C29B"></path><circle cx="35" cy="108" r="1.4" fill="#C2A878"></circle><circle cx="63" cy="109" r="1.2" fill="#C2A878"></circle><path d="M45.4 110 C 45.4 102 46.872 59 46.872 52 L 53.128 52 C 53.128 59 54.6 102 54.6 110 Z" fill="#8A6A46"></path><path d="M48.2796 55 C 47.7 100 47.7 100 48.068 109" stroke="#A6855E" stroke-width="1.5" fill="none" stroke-linecap="round"></path><path d="M 50 32.019999999999996 Q 67.328 51.58239999999999 71.66 57.099999999999994 Q 60.83 61.099999999999994 50 60.099999999999994 Q 39.17 61.099999999999994 28.340000000000003 57.099999999999994 Q 32.672 51.58239999999999 50 32.019999999999996 Z" fill="#1F7A57"></path><path d="M 50 21.760000000000005 Q 63.68 39.544000000000004 67.1 44.56 Q 58.55 48.56 50 47.56 Q 41.45 48.56 32.900000000000006 44.56 Q 36.32 39.544000000000004 50 21.760000000000005 Z" fill="#2F8F66"></path><path d="M 50 11.500000000000004 Q 60.032 27.5056 62.54 32.02 Q 56.269999999999996 36.02 50 35.02 Q 43.730000000000004 36.02 37.46 32.02 Q 39.968 27.5056 50 11.500000000000004 Z" fill="#52B07F"></path><circle cx="45.44" cy="28.6" r="3.65" fill="#8FD0A6"></circle></svg>