<svg xmlns="http://www.w3.org/2000/svg" viewBox="0 0 100 120"><path d="M16 110 Q50 95 84 110 Q84 116 50 116 Q16 116 16 110 Z" fill="#C2A878"></path><path d="M21 109 Q50 99 79 109 Q79 112 50 112.5 Q21 112 21 109 Z" fill="#D8C29B"></path><circle cx="35" cy="108" r="1.4" fill="#C2A878"></circle><circle cx="63" cy="109" r="1.2" fill="#C2A878"></circle><path d="M44.5 110 C 44.5 102 46.26 53 46.26 46 L 53.74 46 C 53.74 53 55.5 102 55.5 110 Z" fill="#8A6A46"></path><path d="M47.943 49 C 47.25 100 47.25 100 47.69 109" stroke="#A6855E" stroke-width="1.5" fill="none" stroke-linecap="round"></path><path d="M 50 25.62 Q 70.368 48.6144 75.46000000000001 55.1 Q 62.730000000000004 59.1 50 58.1 Q 37.269999999999996 59.1 24.54 55.1 Q 29.631999999999998 48.6144 50 25.62 Z" fill="#1F7A57"></path><path d="M 50 13.559999999999999 Q 66.08 34.464 70.1 40.36 Q 60.05 44.36 50 43.36 Q 39.95 44.36 29.9 40.36 Q 33.92 34.464 50 13.559999999999999 Z" fill="#2F8F66"></path><path d="M 50 1.4999999999999964 Q 61.792 20.313599999999997 64.74 25.619999999999997 Q 57.37 29.619999999999997 50 28.619999999999997 Q 42.63 29.619999999999997 35.26 25.619999999999997 Q 38.208 20.313599999999997 50 1.4999999999999964 Z" fill="#52B07F"></path><circle cx="44.64" cy="21.6" r="4.29" fill="#8FD0A6"></circle></svg>