<svg xmlns="http://www.w3.org/2000/svg" viewBox="0 0 100 120"><path d="M16 110 Q50 95 84 110 Q84 116 50 116 Q16 116 16 110 Z" fill="#C2A878"></path><path d="M21 109 Q50 99 79 109 Q79 112 50 112.5 Q21 112 21 109 Z" fill="#D8C29B"></path><circle cx="35" cy="108" r="1.4" fill="#C2A878"></circle><circle cx="63" cy="109" r="1.2" fill="#C2A878"></circle><path d="M46.4 110 C 46.4 102 47.552 67 47.552 60 L 52.448 60 C 52.448 67 53.6 102 53.6 110 Z" fill="#8A6A46"></path><path d="M48.6536 63 C 48.2 100 48.2 100 48.488 109" stroke="#A6855E" stroke-width="1.5" fill="none" stroke-linecap="round"></path><path d="M 50 39.7 Q 63.68 55.144 67.1 59.5 Q 58.55 63.5 50 62.5 Q 41.45 63.5 32.9 59.5 Q 36.32 55.144 50 39.7 Z" fill="#1F7A57"></path><path d="M 50 31.6 Q 60.8 45.64 63.5 49.6 Q 56.75 53.6 50 52.6 Q 43.25 53.6 36.5 49.6 Q 39.2 45.64 50 31.6 Z" fill="#2F8F66"></path><path d="M 50 23.500000000000004 Q 57.92 36.136 59.9 39.7 Q 54.95 43.7 50 42.7 Q 45.05 43.7 40.1 39.7 Q 42.08 36.136 50 23.500000000000004 Z" fill="#52B07F"></path><circle cx="46.4" cy="37" r="2.88" fill="#8FD0A6"></circle></svg>