<svg xmlns="http://www.w3.org/2000/svg" viewBox="0 0 100 120"><path d="M16 110 Q50 95 84 110 Q84 116 50 116 Q16 116 16 110 Z" fill="#C2A878"></path><path d="M21 109 Q50 99 79 109 Q79 112 50 112.5 Q21 112 21 109 Z" fill="#D8C29B"></path><circle cx="35" cy="108" r="1.4" fill="#C2A878"></circle><circle cx="63" cy="109" r="1.2" fill="#C2A878"></circle><path d="M47.25 110 C 47.25 102 48.13 79 48.13 72 L 51.87 72 C 51.87 79 52.75 102 52.75 110 Z" fill="#8A6A46"></path><path d="M48.9715 75 C 48.625 100 48.625 100 48.845 109" stroke="#A6855E" stroke-width="1.5" fill="none" stroke-linecap="round"></path><path d="M 50 51.24 Q 60.336 62.9088 62.92 66.2 Q 56.46 70.2 50 69.2 Q 43.54 70.2 37.08 66.2 Q 39.664 62.9088 50 51.24 Z" fill="#1F7A57"></path><path d="M 50 45.12 Q 58.160000000000004 55.728 60.2 58.72 Q 55.1 62.72 50 61.72 Q 44.9 62.72 39.8 58.72 Q 41.839999999999996 55.728 50 45.12 Z" fill="#2F8F66"></path><path d="M 50 39 Q 55.984 48.547200000000004 57.480000000000004 51.24 Q 53.74 55.24 50 54.24 Q 46.26 55.24 42.519999999999996 51.24 Q 44.016 48.547200000000004 50 39 Z" fill="#52B07F"></path><circle cx="47.28" cy="49.2" r="2.18" fill="#8FD0A6"></circle></svg>