<svg xmlns="http://www.w3.org/2000/svg" viewBox="0 0 100 120"><path d="M16 110 Q50 95 84 110 Q84 116 50 116 Q16 116 16 110 Z" fill="#C2A878"></path><path d="M21 109 Q50 99 79 109 Q79 112 50 112.5 Q21 112 21 109 Z" fill="#D8C29B"></path><circle cx="35" cy="108" r="1.4" fill="#C2A878"></circle><circle cx="63" cy="109" r="1.2" fill="#C2A878"></circle><path d="M46.4 110 C 46.4 102 47.552 67 47.552 60 L 52.448 60 C 52.448 67 53.6 102 53.6 110 Z" fill="#8A6A46"></path><path d="M48.6536 63 C 48.2 100 48.2 100 48.488 109" stroke="#A6855E" stroke-width="1.5" fill="none" stroke-linecap="round"></path><circle cx="50" cy="42.4" r="16.2" fill="#4F9A55"></circle><circle cx="41" cy="44.2" r="9.9" fill="#4F9A55"></circle><circle cx="59" cy="44.2" r="9.9" fill="#4F9A55"></circle><circle cx="50" cy="37.9" r="12.6" fill="#6FB36A"></circle><circle cx="44.6" cy="40.6" r="8.1" fill="#93C98C"></circle><circle cx="43.7" cy="36.1" r="3.6" fill="#C4E6BD"></circle><path d="M35.6 47.8 q -4 13.5 -2.4 23.400000000000002" stroke="#6FB36A" stroke-width="2.7" fill="none" stroke-linecap="round"></path><path d="M42.8 47.8 q -2 13.5 -1.2 23.400000000000002" stroke="#93C98C" stroke-width="2.7" fill="none" stroke-linecap="round"></path><path d="M50 47.8 q 0 13.5 0 23.400000000000002" stroke="#6FB36A" stroke-width="2.7" fill="none" stroke-linecap="round"></path><path d="M57.2 47.8 q 2 13.5 1.2 23.400000000000002" stroke="#93C98C" stroke-width="2.7" fill="none" stroke-linecap="round"></path><path d="M64.4 47.8 q 4 13.5 2.4 23.400000000000002" stroke="#6FB36A" stroke-width="2.7" fill="none" stroke-linecap="round"></path></svg>