<svg xmlns="http://www.w3.org/2000/svg" viewBox="0 0 100 120"><path d="M16 110 Q50 95 84 110 Q84 116 50 116 Q16 116 16 110 Z" fill="#C2A878"></path><path d="M21 109 Q50 99 79 109 Q79 112 50 112.5 Q21 112 21 109 Z" fill="#D8C29B"></path><circle cx="35" cy="108" r="1.4" fill="#C2A878"></circle><circle cx="63" cy="109" r="1.2" fill="#C2A878"></circle><path d="M47.25 110 C 47.25 102 48.13 79 48.13 72 L 51.87 72 C 51.87 79 52.75 102 52.75 110 Z" fill="#8A6A46"></path><path d="M48.9715 75 C 48.625 100 48.625 100 48.845 109" stroke="#A6855E" stroke-width="1.5" fill="none" stroke-linecap="round"></path><circle cx="50" cy="53.28" r="12.24" fill="#4F9A55"></circle><circle cx="43.2" cy="54.64" r="7.48" fill="#4F9A55"></circle><circle cx="56.8" cy="54.64" r="7.48" fill="#4F9A55"></circle><circle cx="50" cy="49.88" r="9.52" fill="#6FB36A"></circle><circle cx="45.92" cy="51.92" r="6.12" fill="#93C98C"></circle><circle cx="45.24" cy="48.52" r="2.72" fill="#C4E6BD"></circle><path d="M39.12 57.36 q -4 10.200000000000001 -2.4 17.68" stroke="#6FB36A" stroke-width="2.04" fill="none" stroke-linecap="round"></path><path d="M44.56 57.36 q -2 10.200000000000001 -1.2 17.68" stroke="#93C98C" stroke-width="2.04" fill="none" stroke-linecap="round"></path><path d="M50 57.36 q 0 10.200000000000001 0 17.68" stroke="#6FB36A" stroke-width="2.04" fill="none" stroke-linecap="round"></path><path d="M55.44 57.36 q 2 10.200000000000001 1.2 17.68" stroke="#93C98C" stroke-width="2.04" fill="none" stroke-linecap="round"></path><path d="M60.88 57.36 q 4 10.200000000000001 2.4 17.68" stroke="#6FB36A" stroke-width="2.04" fill="none" stroke-linecap="round"></path></svg>