<svg xmlns="http://www.w3.org/2000/svg" viewBox="0 0 100 120"><path d="M16 110 Q50 95 84 110 Q84 116 50 116 Q16 116 16 110 Z" fill="#C2A878"></path><path d="M21 109 Q50 99 79 109 Q79 112 50 112.5 Q21 112 21 109 Z" fill="#D8C29B"></path><circle cx="35" cy="108" r="1.4" fill="#C2A878"></circle><circle cx="63" cy="109" r="1.2" fill="#C2A878"></circle><path d="M47.7 110 C 47.7 102 48.436 75.5 48.436 68.5 L 51.564 68.5 C 51.564 75.5 52.3 102 52.3 110 Z" fill="#8A6A46"></path><path d="M49.1398 83 C 48.85 100 48.85 100 49.034 109" stroke="#A6855E" stroke-width="1.5" fill="none" stroke-linecap="round"></path><ellipse cx="50" cy="62.5" rx="6.5" ry="9.5" fill="#5FAE74"></ellipse><ellipse cx="49.5" cy="61.5" rx="5" ry="7.5" fill="#7FC58C"></ellipse><circle cx="48" cy="68.5" r="4" fill="#5FAE74"></circle><circle cx="52.5" cy="68.5" r="3.5" fill="#7FC58C"></circle><circle cx="48.5" cy="59.5" r="3" fill="#A6DCAE"></circle><circle cx="47.5" cy="58.5" r="1.6" fill="#D2EFD7"></circle></svg>