<svg xmlns="http://www.w3.org/2000/svg" viewBox="0 0 100 120"><path d="M16 110 Q50 95 84 110 Q84 116 50 116 Q16 116 16 110 Z" fill="#C2A878"></path><path d="M21 109 Q50 99 79 109 Q79 112 50 112.5 Q21 112 21 109 Z" fill="#D8C29B"></path><circle cx="35" cy="108" r="1.4" fill="#C2A878"></circle><circle cx="63" cy="109" r="1.2" fill="#C2A878"></circle><path d="M28 107 q1.5 -4.5 3 0" stroke="#43A86B" stroke-width="1.4" fill="none" stroke-linecap="round"></path><path d="M69 107 q1.5 -4 3 0" stroke="#43A86B" stroke-width="1.4" fill="none" stroke-linecap="round"></path><path d="M46.4 110 C 46.4 102 47.55 62.3 47.55 55.3 L 52.45 55.3 C 52.45 62.3 53.6 102 53.6 110 Z" fill="#E9E2D3"></path><path d="M47.55 65.3 q 2.45 1 4.5 0.4" stroke="#6B6152" stroke-width="1.3" fill="none" stroke-linecap="round"></path><path d="M47.55 77.3 q 2.45 1 4.5 0.4" stroke="#6B6152" stroke-width="1.3" fill="none" stroke-linecap="round"></path><path d="M47.55 98 q 2.45 1 4.5 0.4" stroke="#6B6152" stroke-width="1.3" fill="none" stroke-linecap="round"></path><ellipse cx="50" cy="43.3" rx="12.6" ry="18.4" fill="#4C9A63"></ellipse><ellipse cx="50" cy="43.3" rx="11.7" ry="17.1" fill="#5FAE74"></ellipse><ellipse cx="49.1" cy="41.5" rx="9" ry="13.5" fill="#7FC58C"></ellipse><circle cx="46.4" cy="54.1" r="7.2" fill="#5FAE74"></circle><circle cx="54.5" cy="54.1" r="6.3" fill="#7FC58C"></circle><circle cx="47.3" cy="37.9" r="5.4" fill="#A6DCAE"></circle><circle cx="45.5" cy="36.1" r="2.88" fill="#D2EFD7"></circle><circle cx="56" cy="55" r="1.6" fill="#E0A458"></circle><circle cx="45" cy="58" r="1.6" fill="#E0A458"></circle></svg>