<svg xmlns="http://www.w3.org/2000/svg" viewBox="0 0 100 120"><path d="M16 110 Q50 95 84 110 Q84 116 50 116 Q16 116 16 110 Z" fill="#C2A878"></path><path d="M21 109 Q50 99 79 109 Q79 112 50 112.5 Q21 112 21 109 Z" fill="#D8C29B"></path><circle cx="35" cy="108" r="1.4" fill="#C2A878"></circle><circle cx="63" cy="109" r="1.2" fill="#C2A878"></circle><path d="M47.25 110 C 47.25 102 48.13 70.56 48.13 63.56 L 51.87 63.56 C 51.87 70.56 52.75 102 52.75 110 Z" fill="#8A6A46"></path><path d="M48.9715 75 C 48.625 100 48.625 100 48.845 109" stroke="#A6855E" stroke-width="1.5" fill="none" stroke-linecap="round"></path><ellipse cx="50" cy="53.96" rx="8.84" ry="12.920000000000002" fill="#5FAE74"></ellipse><ellipse cx="49.32" cy="52.6" rx="6.800000000000001" ry="10.200000000000001" fill="#7FC58C"></ellipse><circle cx="47.28" cy="62.12" r="5.44" fill="#5FAE74"></circle><circle cx="53.4" cy="62.12" r="4.76" fill="#7FC58C"></circle><circle cx="47.96" cy="49.88" r="4.08" fill="#A6DCAE"></circle><circle cx="46.6" cy="48.52" r="2.18" fill="#D2EFD7"></circle></svg>