<svg xmlns="http://www.w3.org/2000/svg" viewBox="0 0 100 120"><path d="M16 110 Q50 95 84 110 Q84 116 50 116 Q16 116 16 110 Z" fill="#C2A878"></path><path d="M21 109 Q50 99 79 109 Q79 112 50 112.5 Q21 112 21 109 Z" fill="#D8C29B"></path><circle cx="35" cy="108" r="1.4" fill="#C2A878"></circle><circle cx="63" cy="109" r="1.2" fill="#C2A878"></circle><path d="M45.4 110 C 45.4 102 46.872 59 46.872 52 L 53.128 52 C 53.128 59 54.6 102 54.6 110 Z" fill="#8A6A46"></path><path d="M48.2796 55 C 47.7 100 47.7 100 48.068 109" stroke="#A6855E" stroke-width="1.5" fill="none" stroke-linecap="round"></path><ellipse cx="50" cy="36.58" rx="14.819999999999999" ry="21.659999999999997" fill="#5FAE74"></ellipse><ellipse cx="48.86" cy="34.3" rx="11.399999999999999" ry="17.099999999999998" fill="#7FC58C"></ellipse><circle cx="45.44" cy="50.26" r="9.12" fill="#5FAE74"></circle><circle cx="55.7" cy="50.26" r="7.98" fill="#7FC58C"></circle><circle cx="46.58" cy="29.74" r="6.84" fill="#A6DCAE"></circle><circle cx="44.3" cy="27.46" r="3.65" fill="#D2EFD7"></circle></svg>