<svg xmlns="http://www.w3.org/2000/svg" viewBox="0 0 100 120"><path d="M16 110 Q50 95 84 110 Q84 116 50 116 Q16 116 16 110 Z" fill="#C2A878"></path><path d="M21 109 Q50 99 79 109 Q79 112 50 112.5 Q21 112 21 109 Z" fill="#D8C29B"></path><circle cx="35" cy="108" r="1.4" fill="#C2A878"></circle><circle cx="63" cy="109" r="1.2" fill="#C2A878"></circle><path d="M46 110 C 45 92 50 74 47 60 C 46 56 49 54 51 56 C 54 70 53 92 54 110 Z" fill="#8A7A60"></path><g transform="rotate(6 50 52)" opacity="0.95"><ellipse cx="50" cy="47.66" rx="10.14" ry="14.82" fill="#9A8463"></ellipse><ellipse cx="49.22" cy="46.1" rx="7.800000000000001" ry="11.700000000000001" fill="#B09A78"></ellipse><circle cx="46.88" cy="57.02" r="6.24" fill="#9A8463"></circle><circle cx="53.9" cy="57.02" r="5.46" fill="#B09A78"></circle><circle cx="47.66" cy="42.98" r="4.68" fill="#C4B190"></circle><circle cx="46.1" cy="41.42" r="2.5" fill="#D6C8AC"></circle></g><path d="M68 78 q5 4 3 9" stroke="#B09A78" stroke-width="2.2" fill="none" stroke-linecap="round"></path><circle cx="73" cy="92" r="2" fill="#B09A78"></circle><circle cx="30" cy="96" r="1.8" fill="#C4B190"></circle></svg>