<svg xmlns="http://www.w3.org/2000/svg" viewBox="0 0 100 120"><path d="M16 110 Q50 95 84 110 Q84 116 50 116 Q16 116 16 110 Z" fill="#C2A878"></path><path d="M21 109 Q50 99 79 109 Q79 112 50 112.5 Q21 112 21 109 Z" fill="#D8C29B"></path><circle cx="35" cy="108" r="1.4" fill="#C2A878"></circle><circle cx="63" cy="109" r="1.2" fill="#C2A878"></circle><path d="M28 107 q1.5 -4.5 3 0" stroke="#43A86B" stroke-width="1.4" fill="none" stroke-linecap="round"></path><path d="M69 107 q1.5 -4 3 0" stroke="#43A86B" stroke-width="1.4" fill="none" stroke-linecap="round"></path><path d="M45.7 110 C 45.7 102 47.1 60.91 47.1 53.91 L 52.9 53.91 C 52.9 60.91 54.3 102 54.3 110 Z" fill="#E9E2D3"></path><path d="M47.1 63.91 q 2.9 1 5.4 0.4" stroke="#6B6152" stroke-width="1.3" fill="none" stroke-linecap="round"></path><path d="M47.1 75.91 q 2.9 1 5.4 0.4" stroke="#6B6152" stroke-width="1.3" fill="none" stroke-linecap="round"></path><path d="M47.1 98 q 2.9 1 5.4 0.4" stroke="#6B6152" stroke-width="1.3" fill="none" stroke-linecap="round"></path><ellipse cx="50" cy="39.03" rx="14.62" ry="21.34" fill="#4C9A63"></ellipse><ellipse cx="50" cy="39.03" rx="13.57" ry="19.84" fill="#5FAE74"></ellipse><ellipse cx="48.96" cy="36.94" rx="10.44" ry="15.66" fill="#7FC58C"></ellipse><circle cx="45.82" cy="51.56" r="8.35" fill="#5FAE74"></circle><circle cx="55.22" cy="51.56" r="7.31" fill="#7FC58C"></circle><circle cx="46.87" cy="32.76" r="6.26" fill="#A6DCAE"></circle><circle cx="44.78" cy="30.68" r="3.34" fill="#D2EFD7"></circle><circle cx="56.96" cy="52.6" r="1.86" fill="#E0A458"></circle><circle cx="44.2" cy="56.08" r="1.86" fill="#E0A458"></circle></svg>