<svg xmlns="http://www.w3.org/2000/svg" viewBox="0 0 100 120"><path d="M16 110 Q50 95 84 110 Q84 116 50 116 Q16 116 16 110 Z" fill="#C2A878"></path><path d="M21 109 Q50 99 79 109 Q79 112 50 112.5 Q21 112 21 109 Z" fill="#D8C29B"></path><circle cx="35" cy="108" r="1.4" fill="#C2A878"></circle><circle cx="63" cy="109" r="1.2" fill="#C2A878"></circle><path d="M47.7 110 C 47.7 102 48.436 74.5 48.436 67.5 L 51.564 67.5 C 51.564 74.5 52.3 102 52.3 110 Z" fill="#8A6A46"></path><path d="M49.1398 83 C 48.85 100 48.85 100 49.034 109" stroke="#A6855E" stroke-width="1.5" fill="none" stroke-linecap="round"></path><circle cx="44.5" cy="65" r="6.5" fill="#E58AAB"></circle><circle cx="55.5" cy="65" r="6.5" fill="#E58AAB"></circle><circle cx="50" cy="59.5" r="7" fill="#E58AAB"></circle><circle cx="46.5" cy="63" r="5" fill="#F3B6CB"></circle><circle cx="53.5" cy="63" r="5" fill="#F3B6CB"></circle><circle cx="50" cy="66" r="5.5" fill="#F3B6CB"></circle><circle cx="48" cy="60.5" r="4" fill="#FBD3E0"></circle><circle cx="51.5" cy="62.5" r="3.5" fill="#FBD3E0"></circle><circle cx="46.5" cy="59.5" r="2" fill="#FFE9F0"></circle><circle cx="56.5" cy="62" r="1.1" fill="#E8728F"></circle><circle cx="53.25" cy="67.2" r="1.1" fill="#E8728F"></circle><circle cx="46.75" cy="67.2" r="1.1" fill="#E8728F"></circle><circle cx="43.5" cy="62" r="1.1" fill="#E8728F"></circle><circle cx="46.75" cy="56.8" r="1.1" fill="#E8728F"></circle><circle cx="53.25" cy="56.8" r="1.1" fill="#E8728F"></circle></svg>