<svg xmlns="http://www.w3.org/2000/svg" viewBox="0 0 100 120"><path d="M16 110 Q50 95 84 110 Q84 116 50 116 Q16 116 16 110 Z" fill="#C2A878"></path><path d="M21 109 Q50 99 79 109 Q79 112 50 112.5 Q21 112 21 109 Z" fill="#D8C29B"></path><circle cx="35" cy="108" r="1.4" fill="#C2A878"></circle><circle cx="63" cy="109" r="1.2" fill="#C2A878"></circle><path d="M47.25 110 C 47.25 102 48.13 69.2 48.13 62.2 L 51.87 62.2 C 51.87 69.2 52.75 102 52.75 110 Z" fill="#8A6A46"></path><path d="M48.9715 75 C 48.625 100 48.625 100 48.845 109" stroke="#A6855E" stroke-width="1.5" fill="none" stroke-linecap="round"></path><circle cx="42.52" cy="57.36" r="8.84" fill="#E58AAB"></circle><circle cx="57.48" cy="57.36" r="8.84" fill="#E58AAB"></circle><circle cx="50" cy="49.88" r="9.52" fill="#E58AAB"></circle><circle cx="45.24" cy="54.64" r="6.8" fill="#F3B6CB"></circle><circle cx="54.76" cy="54.64" r="6.8" fill="#F3B6CB"></circle><circle cx="50" cy="58.72" r="7.48" fill="#F3B6CB"></circle><circle cx="47.28" cy="51.24" r="5.44" fill="#FBD3E0"></circle><circle cx="52.04" cy="53.96" r="4.76" fill="#FBD3E0"></circle><circle cx="45.24" cy="49.88" r="2.72" fill="#FFE9F0"></circle><circle cx="58.84" cy="53.28" r="1.5" fill="#E8728F"></circle><circle cx="54.42" cy="60.35" r="1.5" fill="#E8728F"></circle><circle cx="45.58" cy="60.35" r="1.5" fill="#E8728F"></circle><circle cx="41.16" cy="53.28" r="1.5" fill="#E8728F"></circle><circle cx="45.58" cy="46.21" r="1.5" fill="#E8728F"></circle><circle cx="54.42" cy="46.21" r="1.5" fill="#E8728F"></circle></svg>