<svg xmlns="http://www.w3.org/2000/svg" viewBox="0 0 100 120"><path d="M16 110 Q50 95 84 110 Q84 116 50 116 Q16 116 16 110 Z" fill="#C2A878"></path><path d="M21 109 Q50 99 79 109 Q79 112 50 112.5 Q21 112 21 109 Z" fill="#D8C29B"></path><circle cx="35" cy="108" r="1.4" fill="#C2A878"></circle><circle cx="63" cy="109" r="1.2" fill="#C2A878"></circle><path d="M28 107 q1.5 -4.5 3 0" stroke="#43A86B" stroke-width="1.4" fill="none" stroke-linecap="round"></path><path d="M69 107 q1.5 -4 3 0" stroke="#43A86B" stroke-width="1.4" fill="none" stroke-linecap="round"></path><path d="M47 110 C 47 96 46 84 44 74.2 L 50.5 71.2 C 52.5 82 53 96 53 110 Z" fill="#7A5A44"></path><circle cx="41.2" cy="68.4" r="8" fill="#C2718F"></circle><circle cx="58.8" cy="66.8" r="8" fill="#C2718F"></circle><circle cx="40.4" cy="65.2" r="10.4" fill="#D486A0"></circle><circle cx="59.6" cy="63.6" r="10.4" fill="#D486A0"></circle><circle cx="50" cy="55.6" r="12" fill="#D486A0"></circle><circle cx="42.8" cy="62" r="8.4" fill="#E8A7B8"></circle><circle cx="57.2" cy="60.4" r="8.4" fill="#E8A7B8"></circle><circle cx="50" cy="68.4" r="8.8" fill="#E8A7B8"></circle><circle cx="46" cy="56.4" r="6.4" fill="#F2C4CF"></circle><circle cx="54" cy="54.8" r="5.2" fill="#F2C4CF"></circle><circle cx="48.4" cy="63.6" r="5.6" fill="#F2C4CF"></circle><circle cx="44.4" cy="54.8" r="3.2" fill="#F9DEE4"></circle></svg>