<svg xmlns="http://www.w3.org/2000/svg" viewBox="0 0 100 120"><path d="M16 110 Q50 95 84 110 Q84 116 50 116 Q16 116 16 110 Z" fill="#C2A878"></path><path d="M21 109 Q50 99 79 109 Q79 112 50 112.5 Q21 112 21 109 Z" fill="#D8C29B"></path><circle cx="35" cy="108" r="1.4" fill="#C2A878"></circle><circle cx="63" cy="109" r="1.2" fill="#C2A878"></circle><path d="M28 107 q1.5 -4.5 3 0" stroke="#43A86B" stroke-width="1.4" fill="none" stroke-linecap="round"></path><path d="M69 107 q1.5 -4 3 0" stroke="#43A86B" stroke-width="1.4" fill="none" stroke-linecap="round"></path><path d="M47 110 C 47 96 46 84 44 59.04 L 50.5 56.04 C 52.5 82 53 96 53 110 Z" fill="#7A5A44"></path><path d="M47.5 74.04 Q42 64.04 38.5 57.04" stroke="#7A5A44" stroke-width="2.4" fill="none" stroke-linecap="round"></path><circle cx="37.24" cy="49.28" r="11.6" fill="#C2718F"></circle><circle cx="62.76" cy="46.96" r="11.6" fill="#C2718F"></circle><circle cx="36.08" cy="44.64" r="15.08" fill="#D486A0"></circle><circle cx="63.92" cy="42.32" r="15.08" fill="#D486A0"></circle><circle cx="50" cy="30.72" r="17.4" fill="#D486A0"></circle><circle cx="39.56" cy="40" r="12.18" fill="#E8A7B8"></circle><circle cx="60.44" cy="37.68" r="12.18" fill="#E8A7B8"></circle><circle cx="50" cy="49.28" r="12.76" fill="#E8A7B8"></circle><circle cx="44.2" cy="31.88" r="9.28" fill="#F2C4CF"></circle><circle cx="55.8" cy="29.56" r="7.54" fill="#F2C4CF"></circle><circle cx="47.68" cy="42.32" r="8.12" fill="#F2C4CF"></circle><circle cx="41.88" cy="29.56" r="4.64" fill="#F9DEE4"></circle><circle cx="75.52" cy="65.52" r="1.86" fill="#F2C4CF"></circle><circle cx="26.8" cy="72.48" r="1.86" fill="#F2C4CF"></circle><circle cx="66.24" cy="86.4" r="1.86" fill="#F2C4CF"></circle><circle cx="33.76" cy="93.36" r="1.86" fill="#F2C4CF"></circle></svg>