<svg xmlns="http://www.w3.org/2000/svg" viewBox="0 0 100 120"><path d="M16 110 Q50 95 84 110 Q84 116 50 116 Q16 116 16 110 Z" fill="#C2A878"></path><path d="M21 109 Q50 99 79 109 Q79 112 50 112.5 Q21 112 21 109 Z" fill="#D8C29B"></path><circle cx="35" cy="108" r="1.4" fill="#C2A878"></circle><circle cx="63" cy="109" r="1.2" fill="#C2A878"></circle><path d="M44.5 110 C 44.5 102 46.26 53 46.26 46 L 53.74 46 C 53.74 53 55.5 102 55.5 110 Z" fill="#8A6A46"></path><path d="M47.943 49 C 47.25 100 47.25 100 47.69 109" stroke="#A6855E" stroke-width="1.5" fill="none" stroke-linecap="round"></path><circle cx="33.92" cy="40.36" r="20.1" fill="#2F8F66"></circle><circle cx="66.08" cy="40.36" r="20.1" fill="#2F8F66"></circle><circle cx="50" cy="22.94" r="22.78" fill="#2F8F66"></circle><circle cx="37.94" cy="35" r="16.08" fill="#43A86B"></circle><circle cx="63.4" cy="33.66" r="16.08" fill="#43A86B"></circle><circle cx="50" cy="20.26" r="18.76" fill="#43A86B"></circle><circle cx="50" cy="41.7" r="17.42" fill="#43A86B"></circle><circle cx="41.96" cy="25.62" r="12.06" fill="#6FC089"></circle><circle cx="56.7" cy="22.94" r="9.38" fill="#6FC089"></circle><circle cx="47.32" cy="36.34" r="10.72" fill="#6FC089"></circle><circle cx="37.94" cy="21.6" r="6.03" fill="#A6DCAE"></circle></svg>