<svg xmlns="http://www.w3.org/2000/svg" viewBox="0 0 100 120"><path d="M16 110 Q50 95 84 110 Q84 116 50 116 Q16 116 16 110 Z" fill="#C2A878"></path><path d="M21 109 Q50 99 79 109 Q79 112 50 112.5 Q21 112 21 109 Z" fill="#D8C29B"></path><circle cx="35" cy="108" r="1.4" fill="#C2A878"></circle><circle cx="63" cy="109" r="1.2" fill="#C2A878"></circle><path d="M47.25 110 C 47.25 102 48.13 71.92 48.13 64.92 L 51.87 64.92 C 51.87 71.92 52.75 102 52.75 110 Z" fill="#8A6A46"></path><path d="M48.9715 75 C 48.625 100 48.625 100 48.845 109" stroke="#A6855E" stroke-width="1.5" fill="none" stroke-linecap="round"></path><circle cx="41.84" cy="58.72" r="10.2" fill="#2F8F66"></circle><circle cx="58.16" cy="58.72" r="10.2" fill="#2F8F66"></circle><circle cx="50" cy="49.88" r="11.56" fill="#2F8F66"></circle><circle cx="43.88" cy="56" r="8.16" fill="#43A86B"></circle><circle cx="56.8" cy="55.32" r="8.16" fill="#43A86B"></circle><circle cx="50" cy="48.52" r="9.52" fill="#43A86B"></circle><circle cx="50" cy="59.4" r="8.84" fill="#43A86B"></circle><circle cx="45.92" cy="51.24" r="6.12" fill="#6FC089"></circle><circle cx="53.4" cy="49.88" r="4.76" fill="#6FC089"></circle><circle cx="48.64" cy="56.68" r="5.44" fill="#6FC089"></circle><circle cx="43.88" cy="49.2" r="3.06" fill="#A6DCAE"></circle></svg>