<svg xmlns="http://www.w3.org/2000/svg" viewBox="0 0 100 120"><path d="M16 110 Q50 95 84 110 Q84 116 50 116 Q16 116 16 110 Z" fill="#C2A878"></path><path d="M21 109 Q50 99 79 109 Q79 112 50 112.5 Q21 112 21 109 Z" fill="#D8C29B"></path><circle cx="35" cy="108" r="1.4" fill="#C2A878"></circle><circle cx="63" cy="109" r="1.2" fill="#C2A878"></circle><path d="M47.7 110 C 47.7 102 48.436 87 48.436 80 L 51.564 80 C 51.564 87 52.3 102 52.3 110 Z" fill="#8A6A46"></path><path d="M49.1398 83 C 48.85 100 48.85 100 49.034 109" stroke="#A6855E" stroke-width="1.5" fill="none" stroke-linecap="round"></path><path d="M 50 60.5 Q 57.6 69.08 59.5 71.5 Q 54.75 75.5 50 74.5 Q 45.25 75.5 40.5 71.5 Q 42.4 69.08 50 60.5 Z" fill="#1F7A57"></path><path d="M 50 56 Q 56 63.8 57.5 66 Q 53.75 70 50 69 Q 46.25 70 42.5 66 Q 44 63.8 50 56 Z" fill="#2F8F66"></path><path d="M 50 51.5 Q 54.4 58.52 55.5 60.5 Q 52.75 64.5 50 63.5 Q 47.25 64.5 44.5 60.5 Q 45.6 58.52 50 51.5 Z" fill="#52B07F"></path><circle cx="48" cy="59" r="1.6" fill="#8FD0A6"></circle></svg>