<svg xmlns="http://www.w3.org/2000/svg" viewBox="0 0 100 120"><path d="M16 110 Q50 95 84 110 Q84 116 50 116 Q16 116 16 110 Z" fill="#C2A878"></path><path d="M21 109 Q50 99 79 109 Q79 112 50 112.5 Q21 112 21 109 Z" fill="#D8C29B"></path><circle cx="35" cy="108" r="1.4" fill="#C2A878"></circle><circle cx="63" cy="109" r="1.2" fill="#C2A878"></circle><path d="M46 110 C 45 92 50 74 47 60 C 46 56 49 54 51 56 C 54 70 53 92 54 110 Z" fill="#8A7A60"></path><g transform="rotate(6 50 52)" opacity="0.95"><path d="M 50 44.540000000000006 Q 61.856 57.924800000000005 64.82 61.7 Q 57.41 65.7 50 64.7 Q 42.59 65.7 35.18 61.7 Q 38.144 57.924800000000005 50 44.540000000000006 Z" fill="#9A8463"></path><path d="M 50 37.519999999999996 Q 59.36 49.687999999999995 61.7 53.12 Q 55.85 57.12 50 56.12 Q 44.15 57.12 38.3 53.12 Q 40.64 49.687999999999995 50 37.519999999999996 Z" fill="#B09A78"></path><path d="M 50 30.5 Q 56.864000000000004 41.4512 58.58 44.54 Q 54.29 48.54 50 47.54 Q 45.71 48.54 41.42 44.54 Q 43.135999999999996 41.4512 50 30.5 Z" fill="#C4B190"></path><circle cx="46.88" cy="42.2" r="2.5" fill="#D6C8AC"></circle></g><path d="M68 78 q5 4 3 9" stroke="#B09A78" stroke-width="2.2" fill="none" stroke-linecap="round"></path><circle cx="73" cy="92" r="2" fill="#B09A78"></circle><circle cx="30" cy="96" r="1.8" fill="#C4B190"></circle></svg>