<svg xmlns="http://www.w3.org/2000/svg" viewBox="0 0 100 120"><path d="M16 110 Q50 95 84 110 Q84 116 50 116 Q16 116 16 110 Z" fill="#C2A878"></path><path d="M21 109 Q50 99 79 109 Q79 112 50 112.5 Q21 112 21 109 Z" fill="#D8C29B"></path><circle cx="35" cy="108" r="1.4" fill="#C2A878"></circle><circle cx="63" cy="109" r="1.2" fill="#C2A878"></circle><path d="M28 107 q1.5 -4.5 3 0" stroke="#43A86B" stroke-width="1.4" fill="none" stroke-linecap="round"></path><path d="M69 107 q1.5 -4 3 0" stroke="#43A86B" stroke-width="1.4" fill="none" stroke-linecap="round"></path><path d="M47 110 C 47 102 48 95 48 88 L 52 88 C 52 95 53 102 53 110 Z" fill="#8A6A46"></path><path d="M50 58 Q59.28 73.87 66 85.36 Q50 94 34 85.36 Q40.72 73.87 50 58 Z" fill="#26744B"></path><path d="M50 44 Q56.96 58.55 62 69.08 Q50 77 38 69.08 Q43.04 58.55 50 44 Z" fill="#2F8F66"></path><path d="M50 32 Q54.93 44.34 58.5 53.28 Q50 60 41.5 53.28 Q45.07 44.34 50 32 Z" fill="#43A86B"></path><circle cx="58.32" cy="82.36" r="2" fill="#E0A458"></circle></svg>