<svg xmlns="http://www.w3.org/2000/svg" viewBox="0 0 100 120"><path d="M16 110 Q50 95 84 110 Q84 116 50 116 Q16 116 16 110 Z" fill="#C2A878"></path><path d="M21 109 Q50 99 79 109 Q79 112 50 112.5 Q21 112 21 109 Z" fill="#D8C29B"></path><circle cx="35" cy="108" r="1.4" fill="#C2A878"></circle><circle cx="63" cy="109" r="1.2" fill="#C2A878"></circle><path d="M28 107 q1.5 -4.5 3 0" stroke="#43A86B" stroke-width="1.4" fill="none" stroke-linecap="round"></path><path d="M69 107 q1.5 -4 3 0" stroke="#43A86B" stroke-width="1.4" fill="none" stroke-linecap="round"></path><path d="M46.4 110 C 46.4 102 47.55 87 47.55 80 L 52.45 80 C 52.45 87 53.6 102 53.6 110 Z" fill="#8A6A46"></path><path d="M48.75 83 C 48.2 100 48.2 100 48.5 109" stroke="#A6855E" stroke-width="1.5" fill="none" stroke-linecap="round"></path><path d="M50 44 Q60.44 62.51 68 75.92 Q50 86 32 75.92 Q39.56 62.51 50 44 Z" fill="#26744B"></path><path d="M50 26 Q58.12 40.99 64 51.84 Q50 60 36 51.84 Q41.88 40.99 50 26 Z" fill="#2F8F66"></path><path d="M50 10 Q55.8 22.34 60 31.28 Q50 38 40 31.28 Q44.2 22.34 50 10 Z" fill="#43A86B"></path><path d="M46.5 29 Q44.12 34 42.72 39" stroke="#6FC089" stroke-width="2" fill="none" stroke-linecap="round"></path><path d="M47.5 13 Q45.8 18 44.8 23" stroke="#6FC089" stroke-width="2" fill="none" stroke-linecap="round"></path><circle cx="59.36" cy="72.92" r="2" fill="#E0A458"></circle><circle cx="43.7" cy="48.84" r="2" fill="#E0A458"></circle></svg>