<svg xmlns="http://www.w3.org/2000/svg" viewBox="0 0 100 120"><path d="M16 110 Q50 95 84 110 Q84 116 50 116 Q16 116 16 110 Z" fill="#C2A878"></path><path d="M21 109 Q50 99 79 109 Q79 112 50 112.5 Q21 112 21 109 Z" fill="#D8C29B"></path><circle cx="35" cy="108" r="1.4" fill="#C2A878"></circle><circle cx="63" cy="109" r="1.2" fill="#C2A878"></circle><path d="M46 110 C 45 92 50 98 47 84 C 46 80 49 78 51 80 C 54 94 53 92 54 110 Z" fill="#8A7A60"></path><g transform="rotate(5 50 60)" opacity="0.95"><path d="M50 48 Q59.6 66.51 66.56 79.92 Q50 90 33.44 79.92 Q40.4 66.51 50 48 Z" fill="#8A7458"></path><path d="M50 30 Q57.47 44.99 62.88 55.84 Q50 64 37.12 55.84 Q42.53 44.99 50 30 Z" fill="#9A8463"></path><path d="M50 14 Q55.34 26.34 59.2 35.28 Q50 42 40.8 35.28 Q44.66 26.34 50 14 Z" fill="#B09A78"></path></g><path d="M68 82 q5 4 3 9" stroke="#B09A78" stroke-width="2.2" fill="none" stroke-linecap="round"></path><circle cx="72" cy="96" r="2" fill="#B09A78"></circle><circle cx="31" cy="98" r="1.8" fill="#C4B190"></circle></svg>