<svg xmlns="http://www.w3.org/2000/svg" viewBox="0 0 100 120"><path d="M16 110 Q50 95 84 110 Q84 116 50 116 Q16 116 16 110 Z" fill="#C2A878"></path><path d="M21 109 Q50 99 79 109 Q79 112 50 112.5 Q21 112 21 109 Z" fill="#D8C29B"></path><circle cx="35" cy="108" r="1.4" fill="#C2A878"></circle><circle cx="63" cy="109" r="1.2" fill="#C2A878"></circle><path d="M28 107 q1.5 -4.5 3 0" stroke="#43A86B" stroke-width="1.4" fill="none" stroke-linecap="round"></path><path d="M69 107 q1.5 -4 3 0" stroke="#43A86B" stroke-width="1.4" fill="none" stroke-linecap="round"></path><path d="M45 110 C 45 102 46.6 99 46.6 92 L 53.4 92 C 53.4 99 55 102 55 110 Z" fill="#8A6A46"></path><path d="M50 54 Q63.92 73.4 74 87.44 Q50 98 26 87.44 Q36.08 73.4 50 54 Z" fill="#26744B"></path><path d="M50 37 Q61.31 55.07 69.5 68.16 Q50 78 30.5 68.16 Q38.69 55.07 50 37 Z" fill="#2F8F66"></path><path d="M50 23 Q58.7 38.43 65 49.6 Q50 58 35 49.6 Q41.3 38.43 50 23 Z" fill="#43A86B"></path><path d="M50 11 Q56.38 23.78 61 33.04 Q50 40 39 33.04 Q43.62 23.78 50 11 Z" fill="#43A86B"></path><path d="M50 2 Q54.35 11.7 57.5 18.72 Q50 24 42.5 18.72 Q45.65 11.7 50 2 Z" fill="#6FC089"></path><path d="M45.13 40 Q41.81 45 39.86 50" stroke="#6FC089" stroke-width="2" fill="none" stroke-linecap="round"></path><path d="M46.25 26 Q43.7 31 42.2 36" stroke="#6FC089" stroke-width="2" fill="none" stroke-linecap="round"></path><circle cx="62.48" cy="84.44" r="2" fill="#E0A458"></circle><circle cx="41.23" cy="65.16" r="2" fill="#E0A458"></circle><circle cx="57.8" cy="46.6" r="2" fill="#E0A458"></circle></svg>