<svg xmlns="http://www.w3.org/2000/svg" viewBox="0 0 100 120"><path d="M16 110 Q50 95 84 110 Q84 116 50 116 Q16 116 16 110 Z" fill="#C2A878"></path><path d="M21 109 Q50 99 79 109 Q79 112 50 112.5 Q21 112 21 109 Z" fill="#D8C29B"></path><circle cx="35" cy="108" r="1.4" fill="#C2A878"></circle><circle cx="63" cy="109" r="1.2" fill="#C2A878"></circle><path d="M47.25 110 C 47.25 102 48.13 73.28 48.13 66.28 L 51.87 66.28 C 51.87 73.28 52.75 102 52.75 110 Z" fill="#8A6A46"></path><path d="M48.9715 75 C 48.625 100 48.625 100 48.845 109" stroke="#A6855E" stroke-width="1.5" fill="none" stroke-linecap="round"></path><circle cx="50" cy="57.36" r="12.24" fill="#3F9A63"></circle><circle cx="43.88" cy="62.12" r="8.16" fill="#3F9A63"></circle><circle cx="56.12" cy="62.12" r="8.16" fill="#3F9A63"></circle><circle cx="50" cy="52.6" r="10.2" fill="#56B279"></circle><circle cx="44.56" cy="60.08" r="6.8" fill="#56B279"></circle><circle cx="55.44" cy="60.08" r="6.8" fill="#56B279"></circle><circle cx="47.96" cy="49.88" r="6.12" fill="#7FCB95"></circle><circle cx="52.72" cy="53.28" r="5.44" fill="#7FCB95"></circle><circle cx="45.92" cy="49.2" r="2.72" fill="#B3E4C0"></circle></svg>