<svg xmlns="http://www.w3.org/2000/svg" viewBox="0 0 100 120"><path d="M16 110 Q50 95 84 110 Q84 116 50 116 Q16 116 16 110 Z" fill="#C2A878"></path><path d="M21 109 Q50 99 79 109 Q79 112 50 112.5 Q21 112 21 109 Z" fill="#D8C29B"></path><circle cx="35" cy="108" r="1.4" fill="#C2A878"></circle><circle cx="63" cy="109" r="1.2" fill="#C2A878"></circle><path d="M45.4 110 C 45.4 102 46.872 59 46.872 52 L 53.128 52 C 53.128 59 54.6 102 54.6 110 Z" fill="#8A6A46"></path><path d="M48.2796 55 C 47.7 100 47.7 100 48.068 109" stroke="#A6855E" stroke-width="1.5" fill="none" stroke-linecap="round"></path><circle cx="50" cy="42.28" r="20.52" fill="#3F9A63"></circle><circle cx="39.74" cy="50.26" r="13.68" fill="#3F9A63"></circle><circle cx="60.26" cy="50.26" r="13.68" fill="#3F9A63"></circle><circle cx="50" cy="34.3" r="17.1" fill="#56B279"></circle><circle cx="40.88" cy="46.84" r="11.4" fill="#56B279"></circle><circle cx="59.12" cy="46.84" r="11.4" fill="#56B279"></circle><circle cx="46.58" cy="29.74" r="10.26" fill="#7FCB95"></circle><circle cx="54.56" cy="35.44" r="9.12" fill="#7FCB95"></circle><circle cx="43.16" cy="28.6" r="4.56" fill="#B3E4C0"></circle></svg>