<svg xmlns="http://www.w3.org/2000/svg" viewBox="0 0 100 120"><path d="M16 110 Q50 95 84 110 Q84 116 50 116 Q16 116 16 110 Z" fill="#C2A878"></path><path d="M21 109 Q50 99 79 109 Q79 112 50 112.5 Q21 112 21 109 Z" fill="#D8C29B"></path><circle cx="35" cy="108" r="1.4" fill="#C2A878"></circle><circle cx="63" cy="109" r="1.2" fill="#C2A878"></circle><path d="M47.7 110 C 47.7 102 48.4 87.38 48.4 80.38 L 51.6 80.38 C 51.6 87.38 52.3 102 52.3 110 Z" fill="#8A6A46"></path><path d="M49.6 83.38 C 48.2 100 48.2 100 48.5 109" stroke="#A6855E" stroke-width="1.5" fill="none" stroke-linecap="round"></path><circle cx="50" cy="77.16" r="10.44" fill="#2F8250"></circle><circle cx="44.78" cy="80.64" r="6.96" fill="#2F8250"></circle><circle cx="55.22" cy="80.64" r="6.96" fill="#2F8250"></circle><circle cx="50" cy="76.46" r="9.4" fill="#3F9A63"></circle><circle cx="45.3" cy="80.12" r="6.26" fill="#3F9A63"></circle><circle cx="54.7" cy="80.12" r="6.26" fill="#3F9A63"></circle><circle cx="50" cy="72.81" r="7.83" fill="#56B279"></circle><circle cx="45.82" cy="78.55" r="5.22" fill="#56B279"></circle><circle cx="54.18" cy="78.55" r="5.22" fill="#56B279"></circle><circle cx="48.43" cy="70.72" r="4.7" fill="#7FCB95"></circle><circle cx="52.09" cy="73.33" r="4.18" fill="#7FCB95"></circle><circle cx="46.87" cy="70.2" r="2.09" fill="#B3E4C0"></circle></svg>