<svg xmlns="http://www.w3.org/2000/svg" viewBox="0 0 100 120"><path d="M16 110 Q50 95 84 110 Q84 116 50 116 Q16 116 16 110 Z" fill="#C2A878"></path><path d="M21 109 Q50 99 79 109 Q79 112 50 112.5 Q21 112 21 109 Z" fill="#D8C29B"></path><circle cx="35" cy="108" r="1.4" fill="#C2A878"></circle><circle cx="63" cy="109" r="1.2" fill="#C2A878"></circle><path d="M46 110 C 45 92 50 68.27 47 54.27 C 46 50.27 49 48.27 51 50.27 C 54 64.27 53 92 54 110 Z" fill="#8A7A60"></path><g transform="rotate(6 50 52)" opacity="0.95"><circle cx="50" cy="45.37" r="16.1" fill="#8A7458"></circle><circle cx="50" cy="45.37" r="14.9" fill="#9A8463"></circle><circle cx="41.72" cy="47.02" r="9.11" fill="#9A8463"></circle><circle cx="58.28" cy="47.02" r="9.11" fill="#9A8463"></circle><circle cx="50" cy="41.23" r="11.59" fill="#B09A78"></circle><circle cx="45.03" cy="43.71" r="7.45" fill="#C4B190"></circle><circle cx="44.2" cy="39.57" r="3.31" fill="#D6C8AC"></circle><path d="M36.75 50.34 q -3.71 12.42 -2.25 21.53" stroke="#B09A78" stroke-width="2.48" fill="none" stroke-linecap="round"></path><path d="M43.38 50.34 q -1.85 12.42 -1.13 21.53" stroke="#C4B190" stroke-width="2.48" fill="none" stroke-linecap="round"></path><path d="M50 50.34 q 0 12.42 0 21.53" stroke="#B09A78" stroke-width="2.48" fill="none" stroke-linecap="round"></path><path d="M56.62 50.34 q 1.85 12.42 1.13 21.53" stroke="#C4B190" stroke-width="2.48" fill="none" stroke-linecap="round"></path><path d="M63.25 50.34 q 3.71 12.42 2.25 21.53" stroke="#B09A78" stroke-width="2.48" fill="none" stroke-linecap="round"></path></g><path d="M68 78 q5 4 3 9" stroke="#B09A78" stroke-width="2.2" fill="none" stroke-linecap="round"></path><circle cx="73" cy="92" r="2" fill="#B09A78"></circle><circle cx="30" cy="96" r="1.8" fill="#C4B190"></circle></svg>