<svg xmlns="http://www.w3.org/2000/svg" viewBox="0 0 100 120"><path d="M16 110 Q50 95 84 110 Q84 116 50 116 Q16 116 16 110 Z" fill="#C2A878"></path><path d="M21 109 Q50 99 79 109 Q79 112 50 112.5 Q21 112 21 109 Z" fill="#D8C29B"></path><circle cx="35" cy="108" r="1.4" fill="#C2A878"></circle><circle cx="63" cy="109" r="1.2" fill="#C2A878"></circle><path d="M28 107 q1.5 -4.5 3 0" stroke="#43A86B" stroke-width="1.4" fill="none" stroke-linecap="round"></path><path d="M69 107 q1.5 -4 3 0" stroke="#43A86B" stroke-width="1.4" fill="none" stroke-linecap="round"></path><path d="M45.7 110 C 45.7 102 47.1 58.26 47.1 51.26 L 52.9 51.26 C 52.9 58.26 54.3 102 54.3 110 Z" fill="#8A6A46"></path><path d="M48.3 54.26 C 48.2 100 48.2 100 48.5 109" stroke="#A6855E" stroke-width="1.5" fill="none" stroke-linecap="round"></path><circle cx="50" cy="38.46" r="20.3" fill="#3F8146"></circle><circle cx="50" cy="38.46" r="18.79" fill="#4F9A55"></circle><circle cx="39.56" cy="40.55" r="11.48" fill="#4F9A55"></circle><circle cx="60.44" cy="40.55" r="11.48" fill="#4F9A55"></circle><circle cx="50" cy="33.24" r="14.62" fill="#6FB36A"></circle><circle cx="43.74" cy="36.38" r="9.4" fill="#93C98C"></circle><circle cx="42.69" cy="31.16" r="4.18" fill="#C4E6BD"></circle><circle cx="59.28" cy="68.16" r="1.74" fill="#E0A458"></circle><circle cx="39.56" cy="65.84" r="1.74" fill="#E0A458"></circle><path d="M33.3 44.73 q -4.68 15.66 -2.84 27.14" stroke="#6FB36A" stroke-width="3.13" fill="none" stroke-linecap="round"></path><path d="M41.65 44.73 q -2.34 15.66 -1.42 27.14" stroke="#93C98C" stroke-width="3.13" fill="none" stroke-linecap="round"></path><path d="M50 44.73 q 0 15.66 0 27.14" stroke="#6FB36A" stroke-width="3.13" fill="none" stroke-linecap="round"></path><path d="M58.35 44.73 q 2.34 15.66 1.42 27.14" stroke="#93C98C" stroke-width="3.13" fill="none" stroke-linecap="round"></path><path d="M66.7 44.73 q 4.68 15.66 2.84 27.14" stroke="#6FB36A" stroke-width="3.13" fill="none" stroke-linecap="round"></path></svg>