<svg xmlns="http://www.w3.org/2000/svg" viewBox="0 0 100 120"><path d="M16 110 Q50 95 84 110 Q84 116 50 116 Q16 116 16 110 Z" fill="#C2A878"></path><path d="M21 109 Q50 99 79 109 Q79 112 50 112.5 Q21 112 21 109 Z" fill="#D8C29B"></path><circle cx="35" cy="108" r="1.4" fill="#C2A878"></circle><circle cx="63" cy="109" r="1.2" fill="#C2A878"></circle><path d="M28 107 q1.5 -4.5 3 0" stroke="#43A86B" stroke-width="1.4" fill="none" stroke-linecap="round"></path><path d="M69 107 q1.5 -4 3 0" stroke="#43A86B" stroke-width="1.4" fill="none" stroke-linecap="round"></path><path d="M47 110 C 47 102 48 76.28 48 69.28 L 52 69.28 C 52 76.28 53 102 53 110 Z" fill="#8A6A46"></path><path d="M49.2 72.28 C 48.2 100 48.2 100 48.5 109" stroke="#A6855E" stroke-width="1.5" fill="none" stroke-linecap="round"></path><circle cx="50" cy="62.32" r="14" fill="#3F8146"></circle><circle cx="50" cy="62.32" r="12.96" fill="#4F9A55"></circle><circle cx="42.8" cy="63.76" r="7.92" fill="#4F9A55"></circle><circle cx="57.2" cy="63.76" r="7.92" fill="#4F9A55"></circle><circle cx="50" cy="58.72" r="10.08" fill="#6FB36A"></circle><circle cx="45.68" cy="60.88" r="6.48" fill="#93C98C"></circle><circle cx="44.96" cy="57.28" r="2.88" fill="#C4E6BD"></circle><circle cx="56.4" cy="82.8" r="1.2" fill="#E0A458"></circle><path d="M38.48 66.64 q -3.23 10.8 -1.96 18.72" stroke="#6FB36A" stroke-width="2.16" fill="none" stroke-linecap="round"></path><path d="M44.24 66.64 q -1.61 10.8 -0.98 18.72" stroke="#93C98C" stroke-width="2.16" fill="none" stroke-linecap="round"></path><path d="M50 66.64 q 0 10.8 0 18.72" stroke="#6FB36A" stroke-width="2.16" fill="none" stroke-linecap="round"></path><path d="M55.76 66.64 q 1.61 10.8 0.98 18.72" stroke="#93C98C" stroke-width="2.16" fill="none" stroke-linecap="round"></path><path d="M61.52 66.64 q 3.23 10.8 1.96 18.72" stroke="#6FB36A" stroke-width="2.16" fill="none" stroke-linecap="round"></path></svg>