<svg xmlns="http://www.w3.org/2000/svg" viewBox="0 0 100 120"><path d="M16 110 Q50 95 84 110 Q84 116 50 116 Q16 116 16 110 Z" fill="#C2A878"></path><path d="M21 109 Q50 99 79 109 Q79 112 50 112.5 Q21 112 21 109 Z" fill="#D8C29B"></path><circle cx="35" cy="108" r="1.4" fill="#C2A878"></circle><circle cx="63" cy="109" r="1.2" fill="#C2A878"></circle><path d="M46 110 C 45 92 50 74 47 60 C 46 56 49 54 51 56 C 54 70 53 92 54 110 Z" fill="#8A7A60"></path><g transform="rotate(6 50 52)" opacity="0.95"><circle cx="50" cy="46.88" r="14.04" fill="#9A8463"></circle><circle cx="42.2" cy="48.44" r="8.58" fill="#9A8463"></circle><circle cx="57.8" cy="48.44" r="8.58" fill="#9A8463"></circle><circle cx="50" cy="42.98" r="10.92" fill="#B09A78"></circle><circle cx="45.32" cy="45.32" r="7.02" fill="#C4B190"></circle><circle cx="44.54" cy="41.42" r="3.12" fill="#D6C8AC"></circle><path d="M37.519999999999996 51.56 q -4 11.700000000000001 -2.4 20.28" stroke="#B09A78" stroke-width="2.34" fill="none" stroke-linecap="round"></path><path d="M43.76 51.56 q -2 11.700000000000001 -1.2 20.28" stroke="#C4B190" stroke-width="2.34" fill="none" stroke-linecap="round"></path><path d="M50 51.56 q 0 11.700000000000001 0 20.28" stroke="#B09A78" stroke-width="2.34" fill="none" stroke-linecap="round"></path><path d="M56.24 51.56 q 2 11.700000000000001 1.2 20.28" stroke="#C4B190" stroke-width="2.34" fill="none" stroke-linecap="round"></path><path d="M62.480000000000004 51.56 q 4 11.700000000000001 2.4 20.28" stroke="#B09A78" stroke-width="2.34" fill="none" stroke-linecap="round"></path></g><path d="M68 78 q5 4 3 9" stroke="#B09A78" stroke-width="2.2" fill="none" stroke-linecap="round"></path><circle cx="73" cy="92" r="2" fill="#B09A78"></circle><circle cx="30" cy="96" r="1.8" fill="#C4B190"></circle></svg>