<svg xmlns="http://www.w3.org/2000/svg" viewBox="0 0 100 120"><path d="M16 110 Q50 95 84 110 Q84 116 50 116 Q16 116 16 110 Z" fill="#C2A878"></path><path d="M21 109 Q50 99 79 109 Q79 112 50 112.5 Q21 112 21 109 Z" fill="#D8C29B"></path><circle cx="35" cy="108" r="1.4" fill="#C2A878"></circle><circle cx="63" cy="109" r="1.2" fill="#C2A878"></circle><path d="M47.7 110 C 47.7 102 48.4 86.63 48.4 79.63 L 51.6 79.63 C 51.6 86.63 52.3 102 52.3 110 Z" fill="#8A6A46"></path><path d="M49.6 82.63 C 48.2 100 48.2 100 48.5 109" stroke="#A6855E" stroke-width="1.5" fill="none" stroke-linecap="round"></path><circle cx="50" cy="76.23" r="10.15" fill="#3F8146"></circle><circle cx="50" cy="76.23" r="9.4" fill="#4F9A55"></circle><circle cx="44.78" cy="77.28" r="5.74" fill="#4F9A55"></circle><circle cx="55.22" cy="77.28" r="5.74" fill="#4F9A55"></circle><circle cx="50" cy="73.62" r="7.31" fill="#6FB36A"></circle><circle cx="46.87" cy="75.19" r="4.7" fill="#93C98C"></circle><circle cx="46.35" cy="72.58" r="2.09" fill="#C4E6BD"></circle><path d="M41.65 79.36 q -2.34 7.83 -1.42 13.57" stroke="#6FB36A" stroke-width="1.57" fill="none" stroke-linecap="round"></path><path d="M45.82 79.36 q -1.17 7.83 -0.71 13.57" stroke="#93C98C" stroke-width="1.57" fill="none" stroke-linecap="round"></path><path d="M50 79.36 q 0 7.83 0 13.57" stroke="#6FB36A" stroke-width="1.57" fill="none" stroke-linecap="round"></path><path d="M54.18 79.36 q 1.17 7.83 0.71 13.57" stroke="#93C98C" stroke-width="1.57" fill="none" stroke-linecap="round"></path><path d="M58.35 79.36 q 2.34 7.83 1.42 13.57" stroke="#6FB36A" stroke-width="1.57" fill="none" stroke-linecap="round"></path></svg>