<svg xmlns="http://www.w3.org/2000/svg" viewBox="0 0 384 105.7"><g transform="translate(3.1 79.5)" fill="#18241D"><path d="M33.40 1.40L33.40 1.40Q25.30 1.40 18.85-2.35Q12.40-6.10 8.65-13.55Q4.90-21 4.90-32.30L4.90-32.30Q4.90-40.60 7.05-47.05Q9.20-53.50 13.35-58.05Q17.50-62.60 23.60-65Q29.70-67.40 37.70-67.40L37.70-67.40Q43.70-67.40 48.60-66Q53.50-64.60 57.10-62Q60.70-59.40 62.75-55.75Q64.80-52.10 65-47.50L65-47.50L51.40-43.30Q51.20-47.50 49.25-50.20Q47.30-52.90 44.15-54.25Q41-55.60 37.10-55.60L37.10-55.60Q31.70-55.60 27.85-53.15Q24-50.70 22-45.65Q20-40.60 20-32.90L20-32.90Q20-27 21.15-22.75Q22.30-18.50 24.60-15.70Q26.90-12.90 30.10-11.55Q33.30-10.20 37.50-10.20L37.50-10.20Q41.90-10.20 45.15-11.65Q48.40-13.10 50.35-16.15Q52.30-19.20 52.50-23.90L52.50-23.90L40-23.90L40-34.30L66.70-34.30L66.70 0L56.70 0L56.90-16.90L55.10-16.90Q53.50-10.90 50.80-6.85Q48.10-2.80 43.85-0.70Q39.60 1.40 33.40 1.40ZM93.20 0L78.70 0L78.70-52.50L90.60-52.50L90.70-34.60L92.60-34.60Q93.40-41.30 95.35-45.50Q97.30-49.70 100.80-51.70Q104.30-53.70 109.50-53.70L109.50-53.70Q110.40-53.70 111.45-53.65Q112.50-53.60 113.90-53.30L113.90-53.30L113.30-38Q111.80-38.70 110-39Q108.20-39.30 106.80-39.30L106.80-39.30Q102.90-39.30 100.10-37.50Q97.30-35.70 95.55-32.35Q93.80-29 93.20-24.20L93.20-24.20L93.20 0ZM145.90 1.40L145.90 1.40Q138 1.40 132-1.75Q126.00-4.90 122.60-11.05Q119.20-17.20 119.20-26.40L119.20-26.40Q119.20-35.60 122.65-41.70Q126.10-47.80 132.15-50.85Q138.20-53.90 145.90-53.90L145.90-53.90Q153.80-53.90 159.85-50.80Q165.90-47.70 169.35-41.55Q172.80-35.40 172.80-26.20L172.80-26.20Q172.80-16.90 169.25-10.75Q165.70-4.60 159.65-1.60Q153.60 1.40 145.90 1.40ZM146.40-9.30L146.40-9.30Q150.30-9.30 152.95-11.10Q155.60-12.90 156.95-16.55Q158.30-20.20 158.30-25.40L158.30-25.40Q158.30-30.90 156.85-34.75Q155.40-38.60 152.60-40.65Q149.80-42.70 145.50-42.70L145.50-42.70Q141.80-42.70 139.10-40.95Q136.40-39.20 135-35.55Q133.60-31.90 133.60-26.60L133.60-26.60Q133.60-18.10 137-13.70Q140.40-9.30 146.40-9.30ZM214.90 0L195.00 0L177.50-52.40L193.40-52.40L204.50-11.40L206.10-11.40L217.20-52.40L232.50-52.40L214.90 0ZM264.60 1.40L264.60 1.40Q258.10 1.40 253.05-0.40Q248.00-2.20 244.50-5.60Q241.00-9 239.15-14Q237.30-19 237.30-25.30L237.30-25.30Q237.30-31.50 239.05-36.75Q240.80-42 244.20-45.85Q247.60-49.70 252.50-51.80Q257.40-53.90 263.60-53.90L263.60-53.90Q269.60-53.90 274.30-51.95Q279-50 282.15-46.10Q285.30-42.20 286.75-36.55Q288.20-30.90 287.80-23.60L287.80-23.60L251.10-23.20Q251.50-16.50 254.80-13.10L254.80-13.10Q258.50-9.10 264.60-9.10L264.60-9.10Q267.40-9.10 269.35-9.85Q271.30-10.60 272.55-11.80Q273.80-13 274.55-14.50Q275.30-16 275.80-17.50L275.80-17.50L288.30-14.80Q287.40-11.10 285.65-8.15Q283.90-5.20 281-3.05Q278.10-0.90 274.05 0.25Q270 1.40 264.60 1.40ZM251.50-31.10L251.50-31.10L274.60-31.40Q274.50-34.10 273.70-36.10L273.70-36.10Q272.30-39.50 269.65-41.10Q267-42.70 263.80-42.70L263.80-42.70Q260-42.70 257.10-40.70Q254.20-38.70 252.60-34.90L252.60-34.90Q251.90-33.10 251.50-31.10ZM312.50 0L298.30 0L298.30-71.50L312.50-71.50L312.50 0ZM345.60 18.20L345.60 18.20Q341.60 18.20 337.45 17.45Q333.30 16.70 329.65 15.15Q326 13.60 323.40 11.20L323.40 11.20L327.50-1.10Q330.70 2.20 335.50 3.85Q340.30 5.50 345 5.50L345 5.50Q350.30 5.50 353.85 3.35Q357.40 1.20 359.25-3.25Q361.10-7.70 361.40-14.40L361.40-14.40L362-23.50L359.80-23.50Q358.80-16.90 356.55-12.70Q354.30-8.50 350.85-6.55Q347.40-4.60 342.70-4.60L342.70-4.60Q337-4.60 333.10-7.50Q329.20-10.40 327.25-16.20Q325.30-22 325.30-30.50L325.30-30.50L325.30-52.50L339.70-52.50L339.70-34Q339.70-24.70 341.80-20.60Q343.90-16.50 348.20-16.50L348.20-16.50Q350.50-16.50 352.40-17.75Q354.30-19 355.65-21.40Q357-23.80 357.75-27.25Q358.50-30.70 358.50-35.10L358.50-35.10L358.50-52.50L372.90-52.50L372.90-13.90Q372.90-7.60 371.80-2.45Q370.70 2.70 368.55 6.55Q366.40 10.40 363.10 13Q359.80 15.60 355.45 16.90Q351.10 18.20 345.60 18.20Z"></path></g></svg>