<svg xmlns="http://www.w3.org/2000/svg" viewBox="0 0 100 120"><path d="M16 110 Q50 95 84 110 Q84 116 50 116 Q16 116 16 110 Z" fill="#C2A878"></path><path d="M21 109 Q50 99 79 109 Q79 112 50 112.5 Q21 112 21 109 Z" fill="#D8C29B"></path><circle cx="35" cy="108" r="1.4" fill="#C2A878"></circle><circle cx="63" cy="109" r="1.2" fill="#C2A878"></circle><path d="M38 107 Q50 100 62 107 Z" fill="#D8C29B"></path><circle cx="50" cy="104" r="4.5" fill="#8A6A46"></circle><circle cx="48.4" cy="102.8" r="1.6" fill="#A6855E"></circle><path d="M50 100 C 54 95 60 94 62 96 C 60 101 54 102 50 100 Z" fill="#7FC58C"></path></svg>