<svg xmlns="http://www.w3.org/2000/svg" viewBox="0 0 100 120"><path d="M16 110 Q50 95 84 110 Q84 116 50 116 Q16 116 16 110 Z" fill="#C2A878"></path><path d="M21 109 Q50 99 79 109 Q79 112 50 112.5 Q21 112 21 109 Z" fill="#D8C29B"></path><circle cx="35" cy="108" r="1.4" fill="#C2A878"></circle><circle cx="63" cy="109" r="1.2" fill="#C2A878"></circle><path d="M46 110 C 45 92 50 71 47 57 C 46 53 49 51 51 53 C 54 67 53 92 54 110 Z" fill="#8A7A60"></path><g transform="rotate(6 50 52)" opacity="0.95"><ellipse cx="50" cy="46.44" rx="11.59" ry="16.93" fill="#8A7458"></ellipse><ellipse cx="50" cy="46.44" rx="10.76" ry="15.73" fill="#9A8463"></ellipse><ellipse cx="49.17" cy="44.78" rx="8.28" ry="12.42" fill="#B09A78"></ellipse><circle cx="46.69" cy="56.37" r="6.62" fill="#9A8463"></circle><circle cx="54.14" cy="56.37" r="5.8" fill="#B09A78"></circle><circle cx="47.52" cy="41.47" r="4.97" fill="#C4B190"></circle><circle cx="45.86" cy="39.81" r="2.65" fill="#D6C8AC"></circle></g><path d="M68 78 q5 4 3 9" stroke="#B09A78" stroke-width="2.2" fill="none" stroke-linecap="round"></path><circle cx="73" cy="92" r="2" fill="#B09A78"></circle><circle cx="30" cy="96" r="1.8" fill="#C4B190"></circle></svg>