<svg xmlns="http://www.w3.org/2000/svg" viewBox="0 0 100 120"><path d="M16 110 Q50 95 84 110 Q84 116 50 116 Q16 116 16 110 Z" fill="#C2A878"></path><path d="M21 109 Q50 99 79 109 Q79 112 50 112.5 Q21 112 21 109 Z" fill="#D8C29B"></path><circle cx="35" cy="108" r="1.4" fill="#C2A878"></circle><circle cx="63" cy="109" r="1.2" fill="#C2A878"></circle><path d="M28 107 q1.5 -4.5 3 0" stroke="#43A86B" stroke-width="1.4" fill="none" stroke-linecap="round"></path><path d="M69 107 q1.5 -4 3 0" stroke="#43A86B" stroke-width="1.4" fill="none" stroke-linecap="round"></path><path d="M47 110 C 47 102 48 76.04 48 69.04 L 52 69.04 C 52 76.04 53 102 53 110 Z" fill="#E9E2D3"></path><path d="M48 79.04 q 2 1 3.6 0.4" stroke="#6B6152" stroke-width="1.3" fill="none" stroke-linecap="round"></path><path d="M48 91.04 q 2 1 3.6 0.4" stroke="#6B6152" stroke-width="1.3" fill="none" stroke-linecap="round"></path><path d="M48 98 q 2 1 3.6 0.4" stroke="#6B6152" stroke-width="1.3" fill="none" stroke-linecap="round"></path><ellipse cx="50" cy="60.64" rx="10.08" ry="14.72" fill="#4C9A63"></ellipse><ellipse cx="50" cy="60.64" rx="9.36" ry="13.68" fill="#5FAE74"></ellipse><ellipse cx="49.28" cy="59.2" rx="7.2" ry="10.8" fill="#7FC58C"></ellipse><circle cx="47.12" cy="69.28" r="5.76" fill="#5FAE74"></circle><circle cx="53.6" cy="69.28" r="5.04" fill="#7FC58C"></circle><circle cx="47.84" cy="56.32" r="4.32" fill="#A6DCAE"></circle><circle cx="46.4" cy="54.88" r="2.3" fill="#D2EFD7"></circle><circle cx="54.8" cy="70" r="1.28" fill="#E0A458"></circle></svg>