<svg xmlns="http://www.w3.org/2000/svg" viewBox="0 0 100 120"><path d="M16 110 Q50 95 84 110 Q84 116 50 116 Q16 116 16 110 Z" fill="#C2A878"></path><path d="M21 109 Q50 99 79 109 Q79 112 50 112.5 Q21 112 21 109 Z" fill="#D8C29B"></path><circle cx="35" cy="108" r="1.4" fill="#C2A878"></circle><circle cx="63" cy="109" r="1.2" fill="#C2A878"></circle><path d="M47.7 110 C 47.7 102 48.4 86.45 48.4 79.45 L 51.6 79.45 C 51.6 86.45 52.3 102 52.3 110 Z" fill="#E9E2D3"></path><path d="M48.4 89.45 q 1.6 1 2.8 0.4" stroke="#6B6152" stroke-width="1.3" fill="none" stroke-linecap="round"></path><path d="M48.4 101.45 q 1.6 1 2.8 0.4" stroke="#6B6152" stroke-width="1.3" fill="none" stroke-linecap="round"></path><path d="M48.4 98 q 1.6 1 2.8 0.4" stroke="#6B6152" stroke-width="1.3" fill="none" stroke-linecap="round"></path><ellipse cx="50" cy="75.01" rx="7.31" ry="10.67" fill="#4C9A63"></ellipse><ellipse cx="50" cy="75.01" rx="6.79" ry="9.92" fill="#5FAE74"></ellipse><ellipse cx="49.48" cy="73.97" rx="5.22" ry="7.83" fill="#7FC58C"></ellipse><circle cx="47.91" cy="81.28" r="4.18" fill="#5FAE74"></circle><circle cx="52.61" cy="81.28" r="3.65" fill="#7FC58C"></circle><circle cx="48.43" cy="71.88" r="3.13" fill="#A6DCAE"></circle><circle cx="47.39" cy="70.84" r="1.67" fill="#D2EFD7"></circle></svg>