<svg xmlns="http://www.w3.org/2000/svg" viewBox="0 0 100 120"><path d="M16 110 Q50 95 84 110 Q84 116 50 116 Q16 116 16 110 Z" fill="#C2A878"></path><path d="M21 109 Q50 99 79 109 Q79 112 50 112.5 Q21 112 21 109 Z" fill="#D8C29B"></path><circle cx="35" cy="108" r="1.4" fill="#C2A878"></circle><circle cx="63" cy="109" r="1.2" fill="#C2A878"></circle><path d="M28 107 q1.5 -4.5 3 0" stroke="#43A86B" stroke-width="1.4" fill="none" stroke-linecap="round"></path><path d="M69 107 q1.5 -4 3 0" stroke="#43A86B" stroke-width="1.4" fill="none" stroke-linecap="round"></path><path d="M47 110 C 47 96 46 84 44 60 L 50.5 57 C 52.5 82 53 96 53 110 Z" fill="#7A5A44"></path><path d="M47.5 75 Q42 65 38.5 58" stroke="#7A5A44" stroke-width="2.4" fill="none" stroke-linecap="round"></path><circle cx="39" cy="52" r="10" fill="#C2718F"></circle><circle cx="61" cy="50" r="10" fill="#C2718F"></circle><circle cx="38" cy="48" r="13" fill="#D486A0"></circle><circle cx="62" cy="46" r="13" fill="#D486A0"></circle><circle cx="50" cy="36" r="15" fill="#D486A0"></circle><circle cx="41" cy="44" r="10.5" fill="#E8A7B8"></circle><circle cx="59" cy="42" r="10.5" fill="#E8A7B8"></circle><circle cx="50" cy="52" r="11" fill="#E8A7B8"></circle><circle cx="45" cy="37" r="8" fill="#F2C4CF"></circle><circle cx="55" cy="35" r="6.5" fill="#F2C4CF"></circle><circle cx="48" cy="46" r="7" fill="#F2C4CF"></circle><circle cx="43" cy="35" r="4" fill="#F9DEE4"></circle><circle cx="72" cy="66" r="1.6" fill="#F2C4CF"></circle><circle cx="30" cy="72" r="1.6" fill="#F2C4CF"></circle><circle cx="64" cy="84" r="1.6" fill="#F2C4CF"></circle></svg>