<svg xmlns="http://www.w3.org/2000/svg" viewBox="0 0 100 120"><path d="M16 110 Q50 95 84 110 Q84 116 50 116 Q16 116 16 110 Z" fill="#C2A878"></path><path d="M21 109 Q50 99 79 109 Q79 112 50 112.5 Q21 112 21 109 Z" fill="#D8C29B"></path><circle cx="35" cy="108" r="1.4" fill="#C2A878"></circle><circle cx="63" cy="109" r="1.2" fill="#C2A878"></circle><path d="M46 110 C 45 92 50 72.48 47 58.48 C 46 54.48 49 52.48 51 54.48 C 54 68.48 53 92 54 110 Z" fill="#8A7A60"></path><g transform="rotate(6 50 52)" opacity="0.95"><circle cx="39.88" cy="54.36" r="9.2" fill="#8A7458"></circle><circle cx="60.12" cy="52.52" r="9.2" fill="#8A7458"></circle><circle cx="38.96" cy="50.68" r="11.96" fill="#9A8463"></circle><circle cx="61.04" cy="48.84" r="11.96" fill="#9A8463"></circle><circle cx="50" cy="39.64" r="13.8" fill="#9A8463"></circle><circle cx="41.72" cy="47" r="9.66" fill="#B09A78"></circle><circle cx="58.28" cy="45.16" r="9.66" fill="#B09A78"></circle><circle cx="50" cy="54.36" r="10.12" fill="#B09A78"></circle><circle cx="45.4" cy="40.56" r="7.36" fill="#C4B190"></circle><circle cx="54.6" cy="38.72" r="5.98" fill="#C4B190"></circle><circle cx="48.16" cy="48.84" r="6.44" fill="#C4B190"></circle><circle cx="43.56" cy="38.72" r="3.68" fill="#D6C8AC"></circle></g><path d="M68 78 q5 4 3 9" stroke="#B09A78" stroke-width="2.2" fill="none" stroke-linecap="round"></path><circle cx="73" cy="92" r="2" fill="#B09A78"></circle><circle cx="30" cy="96" r="1.8" fill="#C4B190"></circle></svg>