<svg xmlns="http://www.w3.org/2000/svg" viewBox="0 0 100 120"><path d="M16 110 Q50 95 84 110 Q84 116 50 116 Q16 116 16 110 Z" fill="#C2A878"></path><path d="M21 109 Q50 99 79 109 Q79 112 50 112.5 Q21 112 21 109 Z" fill="#D8C29B"></path><circle cx="35" cy="108" r="1.4" fill="#C2A878"></circle><circle cx="63" cy="109" r="1.2" fill="#C2A878"></circle><path d="M47 110 C 47 96 46 84 44 84.02 L 50.5 81.02 C 52.5 82 53 96 53 110 Z" fill="#7A5A44"></path><circle cx="43.62" cy="80.64" r="5.8" fill="#C2718F"></circle><circle cx="56.38" cy="79.48" r="5.8" fill="#C2718F"></circle><circle cx="43.04" cy="78.32" r="7.54" fill="#D486A0"></circle><circle cx="56.96" cy="77.16" r="7.54" fill="#D486A0"></circle><circle cx="50" cy="71.36" r="8.7" fill="#D486A0"></circle><circle cx="44.78" cy="76" r="6.09" fill="#E8A7B8"></circle><circle cx="55.22" cy="74.84" r="6.09" fill="#E8A7B8"></circle><circle cx="50" cy="80.64" r="6.38" fill="#E8A7B8"></circle><circle cx="47.1" cy="71.94" r="4.64" fill="#F2C4CF"></circle><circle cx="52.9" cy="70.78" r="3.77" fill="#F2C4CF"></circle><circle cx="48.84" cy="77.16" r="4.06" fill="#F2C4CF"></circle><circle cx="45.94" cy="70.78" r="2.32" fill="#F9DEE4"></circle></svg>