<svg xmlns="http://www.w3.org/2000/svg" viewBox="0 0 100 120"><path d="M16 110 Q50 95 84 110 Q84 116 50 116 Q16 116 16 110 Z" fill="#C2A878"></path><path d="M21 109 Q50 99 79 109 Q79 112 50 112.5 Q21 112 21 109 Z" fill="#D8C29B"></path><circle cx="35" cy="108" r="1.4" fill="#C2A878"></circle><circle cx="63" cy="109" r="1.2" fill="#C2A878"></circle><path d="M28 107 q1.5 -4.5 3 0" stroke="#43A86B" stroke-width="1.4" fill="none" stroke-linecap="round"></path><path d="M69 107 q1.5 -4 3 0" stroke="#43A86B" stroke-width="1.4" fill="none" stroke-linecap="round"></path><path d="M45 110 C 45 102 46.6 70.48 46.6 63.48 L 53.4 63.48 C 53.4 70.48 55 102 55 110 Z" fill="#8A6A46"></path><path d="M47.8 66.48 C 48.2 100 48.2 100 48.5 109" stroke="#A6855E" stroke-width="1.5" fill="none" stroke-linecap="round"></path><path d="M50 72 Q58 62 64 55" stroke="#8A6A46" stroke-width="2.5" fill="none" stroke-linecap="round"></path><path d="M50 78 Q42 70 37 64" stroke="#8A6A46" stroke-width="2.5" fill="none" stroke-linecap="round"></path><circle cx="32.58" cy="49.38" r="20.1" fill="#26744B"></circle><circle cx="67.42" cy="49.38" r="20.1" fill="#26744B"></circle><circle cx="50" cy="29.28" r="22.11" fill="#26744B"></circle><circle cx="35.53" cy="43.48" r="18.09" fill="#2F8F66"></circle><circle cx="64.47" cy="43.48" r="18.09" fill="#2F8F66"></circle><circle cx="50" cy="27.81" r="20.5" fill="#2F8F66"></circle><circle cx="39.15" cy="38.66" r="14.47" fill="#43A86B"></circle><circle cx="62.06" cy="37.45" r="14.47" fill="#43A86B"></circle><circle cx="50" cy="25.39" r="16.88" fill="#43A86B"></circle><circle cx="50" cy="44.69" r="15.68" fill="#43A86B"></circle><circle cx="42.76" cy="30.22" r="10.85" fill="#6FC089"></circle><circle cx="56.03" cy="27.81" r="8.44" fill="#6FC089"></circle><circle cx="47.59" cy="39.87" r="9.65" fill="#6FC089"></circle><circle cx="39.15" cy="26.6" r="5.43" fill="#A6DCAE"></circle><circle cx="60.72" cy="46.7" r="2.81" fill="#E0A458"></circle><circle cx="40.62" cy="52.06" r="2.55" fill="#E0A458"></circle><circle cx="53.35" cy="35.98" r="2.28" fill="#E0A458"></circle><circle cx="35.26" cy="31.96" r="2.14" fill="#E0A458"></circle></svg>