<svg xmlns="http://www.w3.org/2000/svg" viewBox="0 0 100 120"><path d="M16 110 Q50 95 84 110 Q84 116 50 116 Q16 116 16 110 Z" fill="#C2A878"></path><path d="M21 109 Q50 99 79 109 Q79 112 50 112.5 Q21 112 21 109 Z" fill="#D8C29B"></path><circle cx="35" cy="108" r="1.4" fill="#C2A878"></circle><circle cx="63" cy="109" r="1.2" fill="#C2A878"></circle><path d="M47.7 110 C 47.7 102 48.4 89.76 48.4 82.76 L 51.6 82.76 C 51.6 89.76 52.3 102 52.3 110 Z" fill="#8A6A46"></path><path d="M49.6 85.76 C 48.2 100 48.2 100 48.5 109" stroke="#A6855E" stroke-width="1.5" fill="none" stroke-linecap="round"></path><circle cx="42.46" cy="80.06" r="8.7" fill="#26744B"></circle><circle cx="57.54" cy="80.06" r="8.7" fill="#26744B"></circle><circle cx="50" cy="71.36" r="9.57" fill="#26744B"></circle><circle cx="43.74" cy="77.51" r="7.83" fill="#2F8F66"></circle><circle cx="56.26" cy="77.51" r="7.83" fill="#2F8F66"></circle><circle cx="50" cy="70.72" r="8.87" fill="#2F8F66"></circle><circle cx="45.3" cy="75.42" r="6.26" fill="#43A86B"></circle><circle cx="55.22" cy="74.9" r="6.26" fill="#43A86B"></circle><circle cx="50" cy="69.68" r="7.31" fill="#43A86B"></circle><circle cx="50" cy="78.03" r="6.79" fill="#43A86B"></circle><circle cx="46.87" cy="71.77" r="4.7" fill="#6FC089"></circle><circle cx="52.61" cy="70.72" r="3.65" fill="#6FC089"></circle><circle cx="48.96" cy="75.94" r="4.18" fill="#6FC089"></circle><circle cx="45.3" cy="70.2" r="2.35" fill="#A6DCAE"></circle></svg>