<svg xmlns="http://www.w3.org/2000/svg" viewBox="0 0 100 120"><path d="M16 110 Q50 95 84 110 Q84 116 50 116 Q16 116 16 110 Z" fill="#C2A878"></path><path d="M21 109 Q50 99 79 109 Q79 112 50 112.5 Q21 112 21 109 Z" fill="#D8C29B"></path><circle cx="35" cy="108" r="1.4" fill="#C2A878"></circle><circle cx="63" cy="109" r="1.2" fill="#C2A878"></circle><path d="M28 107 q1.5 -4.5 3 0" stroke="#43A86B" stroke-width="1.4" fill="none" stroke-linecap="round"></path><path d="M69 107 q1.5 -4 3 0" stroke="#43A86B" stroke-width="1.4" fill="none" stroke-linecap="round"></path><path d="M45.7 110 C 45.7 102 47.1 69.52 47.1 62.52 L 52.9 62.52 C 52.9 69.52 54.3 102 54.3 110 Z" fill="#8A6A46"></path><path d="M48.3 65.52 C 48.2 100 48.2 100 48.5 109" stroke="#A6855E" stroke-width="1.5" fill="none" stroke-linecap="round"></path><circle cx="34.92" cy="51.12" r="17.4" fill="#26744B"></circle><circle cx="65.08" cy="51.12" r="17.4" fill="#26744B"></circle><circle cx="50" cy="33.72" r="19.14" fill="#26744B"></circle><circle cx="37.47" cy="46.02" r="15.66" fill="#2F8F66"></circle><circle cx="62.53" cy="46.02" r="15.66" fill="#2F8F66"></circle><circle cx="50" cy="32.44" r="17.75" fill="#2F8F66"></circle><circle cx="40.6" cy="41.84" r="12.53" fill="#43A86B"></circle><circle cx="60.44" cy="40.8" r="12.53" fill="#43A86B"></circle><circle cx="50" cy="30.36" r="14.62" fill="#43A86B"></circle><circle cx="50" cy="47.06" r="13.57" fill="#43A86B"></circle><circle cx="43.74" cy="34.53" r="9.4" fill="#6FC089"></circle><circle cx="55.22" cy="32.44" r="7.31" fill="#6FC089"></circle><circle cx="47.91" cy="42.88" r="8.35" fill="#6FC089"></circle><circle cx="40.6" cy="31.4" r="4.7" fill="#A6DCAE"></circle><circle cx="59.28" cy="48.8" r="2.44" fill="#E0A458"></circle><circle cx="41.88" cy="53.44" r="2.2" fill="#E0A458"></circle><circle cx="52.9" cy="39.52" r="1.97" fill="#E0A458"></circle><circle cx="37.24" cy="36.04" r="1.86" fill="#E0A458"></circle></svg>