<svg xmlns="http://www.w3.org/2000/svg" viewBox="0 0 100 120"><path d="M16 110 Q50 95 84 110 Q84 116 50 116 Q16 116 16 110 Z" fill="#C2A878"></path><path d="M21 109 Q50 99 79 109 Q79 112 50 112.5 Q21 112 21 109 Z" fill="#D8C29B"></path><circle cx="35" cy="108" r="1.4" fill="#C2A878"></circle><circle cx="63" cy="109" r="1.2" fill="#C2A878"></circle><path d="M46 110 C 45 92 50 78.24 47 64.24 C 46 60.24 49 58.24 51 60.24 C 54 74.24 53 92 54 110 Z" fill="#8A7A60"></path><g transform="rotate(6 50 52)" opacity="0.95"><circle cx="38.04" cy="56.44" r="13.8" fill="#8A7458"></circle><circle cx="61.96" cy="56.44" r="13.8" fill="#8A7458"></circle><circle cx="50" cy="42.64" r="15.18" fill="#8A7458"></circle><circle cx="40.06" cy="52.39" r="12.42" fill="#9A8463"></circle><circle cx="59.94" cy="52.39" r="12.42" fill="#9A8463"></circle><circle cx="50" cy="41.63" r="14.08" fill="#9A8463"></circle><circle cx="42.55" cy="49.08" r="9.94" fill="#B09A78"></circle><circle cx="58.28" cy="48.25" r="9.94" fill="#B09A78"></circle><circle cx="50" cy="39.97" r="11.59" fill="#B09A78"></circle><circle cx="50" cy="53.22" r="10.76" fill="#B09A78"></circle><circle cx="45.03" cy="43.28" r="7.45" fill="#C4B190"></circle><circle cx="54.14" cy="41.63" r="5.8" fill="#C4B190"></circle><circle cx="48.34" cy="49.91" r="6.62" fill="#C4B190"></circle><circle cx="42.55" cy="40.8" r="3.73" fill="#D6C8AC"></circle></g><path d="M68 78 q5 4 3 9" stroke="#B09A78" stroke-width="2.2" fill="none" stroke-linecap="round"></path><circle cx="73" cy="92" r="2" fill="#B09A78"></circle><circle cx="30" cy="96" r="1.8" fill="#C4B190"></circle></svg>