<svg xmlns="http://www.w3.org/2000/svg" viewBox="0 0 100 120"><path d="M16 110 Q50 95 84 110 Q84 116 50 116 Q16 116 16 110 Z" fill="#C2A878"></path><path d="M21 109 Q50 99 79 109 Q79 112 50 112.5 Q21 112 21 109 Z" fill="#D8C29B"></path><circle cx="35" cy="108" r="1.4" fill="#C2A878"></circle><circle cx="63" cy="109" r="1.2" fill="#C2A878"></circle><path d="M28 107 q1.5 -4.5 3 0" stroke="#43A86B" stroke-width="1.4" fill="none" stroke-linecap="round"></path><path d="M69 107 q1.5 -4 3 0" stroke="#43A86B" stroke-width="1.4" fill="none" stroke-linecap="round"></path><path d="M47 110 C 47 102 48 80.6 48 73.6 L 52 73.6 C 52 80.6 53 102 53 110 Z" fill="#8A6A46"></path><path d="M49.2 76.6 C 48.2 100 48.2 100 48.5 109" stroke="#A6855E" stroke-width="1.5" fill="none" stroke-linecap="round"></path><circle cx="39.6" cy="67.6" r="12" fill="#26744B"></circle><circle cx="60.4" cy="67.6" r="12" fill="#26744B"></circle><circle cx="50" cy="55.6" r="13.2" fill="#26744B"></circle><circle cx="41.36" cy="64.08" r="10.8" fill="#2F8F66"></circle><circle cx="58.64" cy="64.08" r="10.8" fill="#2F8F66"></circle><circle cx="50" cy="54.72" r="12.24" fill="#2F8F66"></circle><circle cx="43.52" cy="61.2" r="8.64" fill="#43A86B"></circle><circle cx="57.2" cy="60.48" r="8.64" fill="#43A86B"></circle><circle cx="50" cy="53.28" r="10.08" fill="#43A86B"></circle><circle cx="50" cy="64.8" r="9.36" fill="#43A86B"></circle><circle cx="45.68" cy="56.16" r="6.48" fill="#6FC089"></circle><circle cx="53.6" cy="54.72" r="5.04" fill="#6FC089"></circle><circle cx="48.56" cy="61.92" r="5.76" fill="#6FC089"></circle><circle cx="43.52" cy="54" r="3.24" fill="#A6DCAE"></circle><circle cx="56.4" cy="66" r="1.68" fill="#E0A458"></circle></svg>