<svg xmlns="http://www.w3.org/2000/svg" viewBox="0 0 100 120"><path d="M16 110 Q50 95 84 110 Q84 116 50 116 Q16 116 16 110 Z" fill="#C2A878"></path><path d="M21 109 Q50 99 79 109 Q79 112 50 112.5 Q21 112 21 109 Z" fill="#D8C29B"></path><circle cx="35" cy="108" r="1.4" fill="#C2A878"></circle><circle cx="63" cy="109" r="1.2" fill="#C2A878"></circle><path d="M47.6 110 C 47.6 102 48.3 93 48.3 86 L 51.7 86 C 51.7 93 52.4 102 52.4 110 Z" fill="#8A6A46"></path><path d="M49.5 89 C 48.2 100 48.2 100 48.5 109" stroke="#A6855E" stroke-width="1.5" fill="none" stroke-linecap="round"></path><path d="M50 64 Q56.96 76.34 62 85.28 Q50 92 38 85.28 Q43.04 76.34 50 64 Z" fill="#2F8F66"></path><path d="M50 53 Q54.93 63.58 58.5 71.24 Q50 77 41.5 71.24 Q45.07 63.58 50 53 Z" fill="#43A86B"></path></svg>