<svg xmlns="http://www.w3.org/2000/svg" viewBox="0 0 100 120"><path d="M16 110 Q50 95 84 110 Q84 116 50 116 Q16 116 16 110 Z" fill="#C2A878"></path><path d="M21 109 Q50 99 79 109 Q79 112 50 112.5 Q21 112 21 109 Z" fill="#D8C29B"></path><circle cx="35" cy="108" r="1.4" fill="#C2A878"></circle><circle cx="63" cy="109" r="1.2" fill="#C2A878"></circle><path d="M28 107 q1.5 -4.5 3 0" stroke="#43A86B" stroke-width="1.4" fill="none" stroke-linecap="round"></path><path d="M69 107 q1.5 -4 3 0" stroke="#43A86B" stroke-width="1.4" fill="none" stroke-linecap="round"></path><path d="M45.7 110 C 45.7 102 47.1 93 47.1 86 L 52.9 86 C 52.9 93 54.3 102 54.3 110 Z" fill="#8A6A46"></path><path d="M48.3 89 C 48.2 100 48.2 100 48.5 109" stroke="#A6855E" stroke-width="1.5" fill="none" stroke-linecap="round"></path><path d="M50 50 Q62.18 68.51 71 81.92 Q50 92 29 81.92 Q37.82 68.51 50 50 Z" fill="#26744B"></path><path d="M50 33 Q59.57 49.31 66.5 61.12 Q50 70 33.5 61.12 Q40.43 49.31 50 33 Z" fill="#2F8F66"></path><path d="M50 19 Q57.25 32.66 62.5 42.56 Q50 50 37.5 42.56 Q42.75 32.66 50 19 Z" fill="#43A86B"></path><path d="M50 8 Q55.22 18.58 59 26.24 Q50 32 41 26.24 Q44.78 18.58 50 8 Z" fill="#43A86B"></path><path d="M45.88 36 Q43.07 41 41.42 46" stroke="#6FC089" stroke-width="2" fill="none" stroke-linecap="round"></path><path d="M46.88 22 Q44.75 27 43.5 32" stroke="#6FC089" stroke-width="2" fill="none" stroke-linecap="round"></path><circle cx="60.92" cy="78.92" r="2" fill="#E0A458"></circle><circle cx="42.58" cy="58.12" r="2" fill="#E0A458"></circle></svg>