<svg xmlns="http://www.w3.org/2000/svg" viewBox="0 0 100 120"><path d="M16 110 Q50 95 84 110 Q84 116 50 116 Q16 116 16 110 Z" fill="#C2A878"></path><path d="M21 109 Q50 99 79 109 Q79 112 50 112.5 Q21 112 21 109 Z" fill="#D8C29B"></path><circle cx="35" cy="108" r="1.4" fill="#C2A878"></circle><circle cx="63" cy="109" r="1.2" fill="#C2A878"></circle><path d="M28 107 q1.5 -4.5 3 0" stroke="#43A86B" stroke-width="1.4" fill="none" stroke-linecap="round"></path><path d="M69 107 q1.5 -4 3 0" stroke="#43A86B" stroke-width="1.4" fill="none" stroke-linecap="round"></path><path d="M45.7 110 C 45.7 102 47.1 64.76 47.1 57.76 L 52.9 57.76 C 52.9 64.76 54.3 102 54.3 110 Z" fill="#8A6A46"></path><path d="M48.3 60.76 C 48.2 100 48.2 100 48.5 109" stroke="#A6855E" stroke-width="1.5" fill="none" stroke-linecap="round"></path><circle cx="50" cy="45.32" r="20.88" fill="#2F8250"></circle><circle cx="39.56" cy="52.28" r="13.92" fill="#2F8250"></circle><circle cx="60.44" cy="52.28" r="13.92" fill="#2F8250"></circle><circle cx="50" cy="43.93" r="18.79" fill="#3F9A63"></circle><circle cx="40.6" cy="51.24" r="12.53" fill="#3F9A63"></circle><circle cx="59.4" cy="51.24" r="12.53" fill="#3F9A63"></circle><circle cx="50" cy="36.62" r="15.66" fill="#56B279"></circle><circle cx="41.65" cy="48.1" r="10.44" fill="#56B279"></circle><circle cx="58.35" cy="48.1" r="10.44" fill="#56B279"></circle><circle cx="46.87" cy="32.44" r="9.4" fill="#7FCB95"></circle><circle cx="54.18" cy="37.66" r="8.35" fill="#7FCB95"></circle><circle cx="43.74" cy="31.4" r="4.18" fill="#B3E4C0"></circle><circle cx="58.12" cy="45.32" r="2.2" fill="#E0A458"></circle><circle cx="40.72" cy="52.28" r="2.2" fill="#E0A458"></circle><circle cx="51.16" cy="54.6" r="1.97" fill="#E0A458"></circle></svg>