<svg xmlns="http://www.w3.org/2000/svg" viewBox="0 0 100 120"><path d="M16 110 Q50 95 84 110 Q84 116 50 116 Q16 116 16 110 Z" fill="#C2A878"></path><path d="M21 109 Q50 99 79 109 Q79 112 50 112.5 Q21 112 21 109 Z" fill="#D8C29B"></path><circle cx="35" cy="108" r="1.4" fill="#C2A878"></circle><circle cx="63" cy="109" r="1.2" fill="#C2A878"></circle><path d="M46 110 C 45 92 50 74.47 47 60.47 C 46 56.47 49 54.47 51 56.47 C 54 70.47 53 92 54 110 Z" fill="#8A7A60"></path><g transform="rotate(6 50 52)" opacity="0.95"><circle cx="50" cy="51.84" r="16.56" fill="#8A7458"></circle><circle cx="41.72" cy="57.36" r="11.04" fill="#8A7458"></circle><circle cx="58.28" cy="57.36" r="11.04" fill="#8A7458"></circle><circle cx="50" cy="50.74" r="14.9" fill="#9A8463"></circle><circle cx="42.55" cy="56.53" r="9.94" fill="#9A8463"></circle><circle cx="57.45" cy="56.53" r="9.94" fill="#9A8463"></circle><circle cx="50" cy="44.94" r="12.42" fill="#B09A78"></circle><circle cx="43.38" cy="54.05" r="8.28" fill="#B09A78"></circle><circle cx="56.62" cy="54.05" r="8.28" fill="#B09A78"></circle><circle cx="47.52" cy="41.63" r="7.45" fill="#C4B190"></circle><circle cx="53.31" cy="45.77" r="6.62" fill="#C4B190"></circle><circle cx="45.03" cy="40.8" r="3.31" fill="#D6C8AC"></circle></g><path d="M68 78 q5 4 3 9" stroke="#B09A78" stroke-width="2.2" fill="none" stroke-linecap="round"></path><circle cx="73" cy="92" r="2" fill="#B09A78"></circle><circle cx="30" cy="96" r="1.8" fill="#C4B190"></circle></svg>