<svg xmlns="http://www.w3.org/2000/svg" viewBox="0 0 100 120"><path d="M16 110 Q50 95 84 110 Q84 116 50 116 Q16 116 16 110 Z" fill="#C2A878"></path><path d="M21 109 Q50 99 79 109 Q79 112 50 112.5 Q21 112 21 109 Z" fill="#D8C29B"></path><circle cx="35" cy="108" r="1.4" fill="#C2A878"></circle><circle cx="63" cy="109" r="1.2" fill="#C2A878"></circle><path d="M28 107 q1.5 -4.5 3 0" stroke="#43A86B" stroke-width="1.4" fill="none" stroke-linecap="round"></path><path d="M69 107 q1.5 -4 3 0" stroke="#43A86B" stroke-width="1.4" fill="none" stroke-linecap="round"></path><path d="M47 110 C 47 102 48 77.32 48 70.32 L 52 70.32 C 52 77.32 53 102 53 110 Z" fill="#8A6A46"></path><path d="M49.2 73.32 C 48.2 100 48.2 100 48.5 109" stroke="#A6855E" stroke-width="1.5" fill="none" stroke-linecap="round"></path><circle cx="50" cy="63.6" r="14.4" fill="#2F8250"></circle><circle cx="42.8" cy="68.4" r="9.6" fill="#2F8250"></circle><circle cx="57.2" cy="68.4" r="9.6" fill="#2F8250"></circle><circle cx="50" cy="62.64" r="12.96" fill="#3F9A63"></circle><circle cx="43.52" cy="67.68" r="8.64" fill="#3F9A63"></circle><circle cx="56.48" cy="67.68" r="8.64" fill="#3F9A63"></circle><circle cx="50" cy="57.6" r="10.8" fill="#56B279"></circle><circle cx="44.24" cy="65.52" r="7.2" fill="#56B279"></circle><circle cx="55.76" cy="65.52" r="7.2" fill="#56B279"></circle><circle cx="47.84" cy="54.72" r="6.48" fill="#7FCB95"></circle><circle cx="52.88" cy="58.32" r="5.76" fill="#7FCB95"></circle><circle cx="45.68" cy="54" r="2.88" fill="#B3E4C0"></circle><circle cx="55.6" cy="63.6" r="1.52" fill="#E0A458"></circle></svg>