<svg xmlns="http://www.w3.org/2000/svg" viewBox="0 0 100 100"><circle cx="83" cy="15" r="7" fill="#E0A458"></circle><path d="M27 36 Q31.5 43.5 34.8 53 Q38 62.5 39.5 70.5 Q33.5 74.8 27 74.8 Q20.5 74.8 14.5 70.5 Q16 62.5 19.2 53 Q22.5 43.5 27 36 Z" fill="#43A86B"></path><rect x="25.5" y="73.5" width="3" height="9.5" rx="1.5" fill="#8A6A46"></rect><path d="M73 29 Q78 38 81.8 48.5 Q85.5 59 87.2 68.5 Q80.5 73.3 73 73.3 Q65.5 73.3 58.8 68.5 Q60.5 59 64.2 48.5 Q68 38 73 29 Z" fill="#43A86B"></path><rect x="71.3" y="72" width="3.4" height="10.5" rx="1.7" fill="#8A6A46"></rect><path d="M50 13 Q56 23 60.5 36 Q65 49 67 62.5 Q58.8 68 50 68 Q41.2 68 33 62.5 Q35 49 39.5 36 Q44 23 50 13 Z" fill="#1E5238"></path><rect x="47.8" y="66.5" width="4.4" height="13.5" rx="2.2" fill="#8A6A46"></rect><path d="M13 86.5 Q50 79.5 87 86.5 Q87 90.5 50 90.5 Q13 90.5 13 86.5 Z" fill="#C2A878"></path></svg>