<svg xmlns="http://www.w3.org/2000/svg" viewBox="0 0 100 120"><path d="M16 110 Q50 95 84 110 Q84 116 50 116 Q16 116 16 110 Z" fill="#C2A878"></path><path d="M21 109 Q50 99 79 109 Q79 112 50 112.5 Q21 112 21 109 Z" fill="#D8C29B"></path><circle cx="35" cy="108" r="1.4" fill="#C2A878"></circle><circle cx="63" cy="109" r="1.2" fill="#C2A878"></circle><path d="M46 110 C 45 92 50 74 47 60 C 46 56 49 54 51 56 C 54 70 53 92 54 110 Z" fill="#8A7A60"></path><g transform="rotate(6 50 52)" opacity="0.95"><circle cx="41.42" cy="51.56" r="10.14" fill="#9A8463"></circle><circle cx="58.58" cy="51.56" r="10.14" fill="#9A8463"></circle><circle cx="50" cy="42.98" r="10.92" fill="#9A8463"></circle><circle cx="44.54" cy="48.44" r="7.8" fill="#B09A78"></circle><circle cx="55.46" cy="48.44" r="7.8" fill="#B09A78"></circle><circle cx="50" cy="53.12" r="8.58" fill="#B09A78"></circle><circle cx="46.88" cy="44.54" r="6.24" fill="#C4B190"></circle><circle cx="52.34" cy="47.66" r="5.46" fill="#C4B190"></circle><circle cx="44.54" cy="42.98" r="3.12" fill="#D6C8AC"></circle><circle cx="60.14" cy="46.88" r="1.72" fill="#B09A78"></circle><circle cx="55.07" cy="54.99" r="1.72" fill="#B09A78"></circle><circle cx="44.93" cy="54.99" r="1.72" fill="#B09A78"></circle><circle cx="39.86" cy="46.88" r="1.72" fill="#B09A78"></circle><circle cx="44.93" cy="38.77" r="1.72" fill="#B09A78"></circle><circle cx="55.07" cy="38.77" r="1.72" fill="#B09A78"></circle></g><path d="M68 78 q5 4 3 9" stroke="#B09A78" stroke-width="2.2" fill="none" stroke-linecap="round"></path><circle cx="73" cy="92" r="2" fill="#B09A78"></circle><circle cx="30" cy="96" r="1.8" fill="#C4B190"></circle></svg>