<svg xmlns="http://www.w3.org/2000/svg" viewBox="0 0 100 120"><path d="M16 110 Q50 95 84 110 Q84 116 50 116 Q16 116 16 110 Z" fill="#C2A878"></path><path d="M21 109 Q50 99 79 109 Q79 112 50 112.5 Q21 112 21 109 Z" fill="#D8C29B"></path><circle cx="35" cy="108" r="1.4" fill="#C2A878"></circle><circle cx="63" cy="109" r="1.2" fill="#C2A878"></circle><path d="M45.4 110 C 45.4 102 46.872 59 46.872 52 L 53.128 52 C 53.128 59 54.6 102 54.6 110 Z" fill="#8A6A46"></path><path d="M48.2796 55 C 47.7 100 47.7 100 48.068 109" stroke="#A6855E" stroke-width="1.5" fill="none" stroke-linecap="round"></path><circle cx="37.46" cy="42.28" r="14.82" fill="#E58AAB"></circle><circle cx="62.54" cy="42.28" r="14.82" fill="#E58AAB"></circle><circle cx="50" cy="29.74" r="15.96" fill="#E58AAB"></circle><circle cx="42.02" cy="37.72" r="11.4" fill="#F3B6CB"></circle><circle cx="57.98" cy="37.72" r="11.4" fill="#F3B6CB"></circle><circle cx="50" cy="44.56" r="12.54" fill="#F3B6CB"></circle><circle cx="45.44" cy="32.02" r="9.12" fill="#FBD3E0"></circle><circle cx="53.42" cy="36.58" r="7.98" fill="#FBD3E0"></circle><circle cx="42.02" cy="29.74" r="4.56" fill="#FFE9F0"></circle><circle cx="64.82" cy="35.44" r="2.51" fill="#E8728F"></circle><circle cx="57.41" cy="47.29" r="2.51" fill="#E8728F"></circle><circle cx="42.59" cy="47.29" r="2.51" fill="#E8728F"></circle><circle cx="35.18" cy="35.44" r="2.51" fill="#E8728F"></circle><circle cx="42.59" cy="23.59" r="2.51" fill="#E8728F"></circle><circle cx="57.41" cy="23.59" r="2.51" fill="#E8728F"></circle></svg>