<svg xmlns="http://www.w3.org/2000/svg" viewBox="0 0 100 120"><path d="M16 110 Q50 95 84 110 Q84 116 50 116 Q16 116 16 110 Z" fill="#C2A878"></path><path d="M21 109 Q50 99 79 109 Q79 112 50 112.5 Q21 112 21 109 Z" fill="#D8C29B"></path><circle cx="35" cy="108" r="1.4" fill="#C2A878"></circle><circle cx="63" cy="109" r="1.2" fill="#C2A878"></circle><path d="M46.4 110 C 46.4 102 47.552 67 47.552 60 L 52.448 60 C 52.448 67 53.6 102 53.6 110 Z" fill="#8A6A46"></path><path d="M48.6536 63 C 48.2 100 48.2 100 48.488 109" stroke="#A6855E" stroke-width="1.5" fill="none" stroke-linecap="round"></path><circle cx="39.2" cy="49.6" r="13.5" fill="#2F8F66"></circle><circle cx="60.8" cy="49.6" r="13.5" fill="#2F8F66"></circle><circle cx="50" cy="37.9" r="15.3" fill="#2F8F66"></circle><circle cx="41.9" cy="46" r="10.8" fill="#43A86B"></circle><circle cx="59" cy="45.1" r="10.8" fill="#43A86B"></circle><circle cx="50" cy="36.1" r="12.6" fill="#43A86B"></circle><circle cx="50" cy="50.5" r="11.7" fill="#43A86B"></circle><circle cx="44.6" cy="39.7" r="8.1" fill="#6FC089"></circle><circle cx="54.5" cy="37.9" r="6.3" fill="#6FC089"></circle><circle cx="48.2" cy="46.9" r="7.2" fill="#6FC089"></circle><circle cx="41.9" cy="37" r="4.05" fill="#A6DCAE"></circle></svg>