<svg xmlns="http://www.w3.org/2000/svg" viewBox="0 0 100 120"><path d="M16 110 Q50 95 84 110 Q84 116 50 116 Q16 116 16 110 Z" fill="#C2A878"></path><path d="M21 109 Q50 99 79 109 Q79 112 50 112.5 Q21 112 21 109 Z" fill="#D8C29B"></path><circle cx="35" cy="108" r="1.4" fill="#C2A878"></circle><circle cx="63" cy="109" r="1.2" fill="#C2A878"></circle><path d="M45.4 110 C 45.4 102 46.872 59 46.872 52 L 53.128 52 C 53.128 59 54.6 102 54.6 110 Z" fill="#8A6A46"></path><path d="M48.2796 55 C 47.7 100 47.7 100 48.068 109" stroke="#A6855E" stroke-width="1.5" fill="none" stroke-linecap="round"></path><circle cx="50" cy="35.44" r="20.52" fill="#4F9A55"></circle><circle cx="38.6" cy="37.72" r="12.54" fill="#4F9A55"></circle><circle cx="61.4" cy="37.72" r="12.54" fill="#4F9A55"></circle><circle cx="50" cy="29.74" r="15.96" fill="#6FB36A"></circle><circle cx="43.16" cy="33.16" r="10.26" fill="#93C98C"></circle><circle cx="42.02" cy="27.46" r="4.56" fill="#C4E6BD"></circle><path d="M31.76 42.28 q -4 17.099999999999998 -2.4 29.639999999999997" stroke="#6FB36A" stroke-width="3.42" fill="none" stroke-linecap="round"></path><path d="M40.88 42.28 q -2 17.099999999999998 -1.2 29.639999999999997" stroke="#93C98C" stroke-width="3.42" fill="none" stroke-linecap="round"></path><path d="M50 42.28 q 0 17.099999999999998 0 29.639999999999997" stroke="#6FB36A" stroke-width="3.42" fill="none" stroke-linecap="round"></path><path d="M59.12 42.28 q 2 17.099999999999998 1.2 29.639999999999997" stroke="#93C98C" stroke-width="3.42" fill="none" stroke-linecap="round"></path><path d="M68.24 42.28 q 4 17.099999999999998 2.4 29.639999999999997" stroke="#6FB36A" stroke-width="3.42" fill="none" stroke-linecap="round"></path></svg>